G04 #@! TF.GenerationSoftware,KiCad,Pcbnew,5.0.0*
G04 #@! TF.CreationDate,2018-07-16T13:27:37+02:00*
G04 #@! TF.ProjectId,csipmod,637369706D6F642E6B696361645F7063,rev?*
G04 #@! TF.SameCoordinates,Original*
G04 #@! TF.FileFunction,Copper,L4,Bot,Signal*
G04 #@! TF.FilePolarity,Positive*
%FSLAX46Y46*%
G04 Gerber Fmt 4.6, Leading zero omitted, Abs format (unit mm)*
G04 Created by KiCad (PCBNEW 5.0.0) date Mon Jul 16 13:27:37 2018*
%MOMM*%
%LPD*%
G01*
G04 APERTURE LIST*
G04 #@! TA.AperFunction,ComponentPad*
%ADD10R,1.700000X1.700000*%
G04 #@! TD*
G04 #@! TA.AperFunction,ComponentPad*
%ADD11O,1.700000X1.700000*%
G04 #@! TD*
G04 #@! TA.AperFunction,ViaPad*
%ADD12C,0.600000*%
G04 #@! TD*
G04 #@! TA.AperFunction,Conductor*
%ADD13C,0.250000*%
G04 #@! TD*
G04 #@! TA.AperFunction,Conductor*
%ADD14C,0.180000*%
G04 #@! TD*
G04 #@! TA.AperFunction,Conductor*
%ADD15C,0.254000*%
G04 #@! TD*
G04 APERTURE END LIST*
D10*
G04 #@! TO.P,J1,6*
G04 #@! TO.N,+3V3*
X132080000Y-86360000D03*
D11*
G04 #@! TO.P,J1,12*
X132080000Y-88900000D03*
G04 #@! TO.P,J1,5*
G04 #@! TO.N,GND*
X129540000Y-86360000D03*
G04 #@! TO.P,J1,11*
X129540000Y-88900000D03*
G04 #@! TO.P,J1,4*
G04 #@! TO.N,/LPD0+*
X127000000Y-86360000D03*
G04 #@! TO.P,J1,10*
G04 #@! TO.N,/LPD1+*
X127000000Y-88900000D03*
G04 #@! TO.P,J1,3*
G04 #@! TO.N,/LPD0-*
X124460000Y-86360000D03*
G04 #@! TO.P,J1,9*
G04 #@! TO.N,/LPD1-*
X124460000Y-88900000D03*
G04 #@! TO.P,J1,2*
G04 #@! TO.N,/LPCLK+*
X121920000Y-86360000D03*
G04 #@! TO.P,J1,8*
G04 #@! TO.N,/LPDREF*
X121920000Y-88900000D03*
G04 #@! TO.P,J1,1*
G04 #@! TO.N,/LPCLK-*
X119380000Y-86360000D03*
G04 #@! TO.P,J1,7*
G04 #@! TO.N,/CAM_ENABLE*
X119380000Y-88900000D03*
G04 #@! TD*
G04 #@! TO.P,J2,7*
G04 #@! TO.N,/HSD0+*
X142240000Y-88900000D03*
G04 #@! TO.P,J2,1*
G04 #@! TO.N,/HSD1-*
X142240000Y-86360000D03*
G04 #@! TO.P,J2,8*
G04 #@! TO.N,/HSD1+*
X144780000Y-88900000D03*
G04 #@! TO.P,J2,2*
G04 #@! TO.N,/HSD0-*
X144780000Y-86360000D03*
G04 #@! TO.P,J2,9*
G04 #@! TO.N,/HSCLK+*
X147320000Y-88900000D03*
G04 #@! TO.P,J2,3*
G04 #@! TO.N,/FPGA_SDA*
X147320000Y-86360000D03*
G04 #@! TO.P,J2,10*
G04 #@! TO.N,/FPGA_SCL*
X149860000Y-88900000D03*
G04 #@! TO.P,J2,4*
G04 #@! TO.N,/HSCLK-*
X149860000Y-86360000D03*
G04 #@! TO.P,J2,11*
G04 #@! TO.N,GND*
X152400000Y-88900000D03*
G04 #@! TO.P,J2,5*
X152400000Y-86360000D03*
G04 #@! TO.P,J2,12*
G04 #@! TO.N,+3V3*
X154940000Y-88900000D03*
D10*
G04 #@! TO.P,J2,6*
X154940000Y-86360000D03*
G04 #@! TD*
D12*
G04 #@! TO.N,+3V3*
X134000000Y-85000000D03*
X125000000Y-81000000D03*
G04 #@! TO.N,GND*
X158200000Y-74990000D03*
X152030000Y-73190000D03*
X157700000Y-64790000D03*
X154040000Y-66860000D03*
X127000000Y-78000000D03*
X131750000Y-77500000D03*
X131750000Y-75750000D03*
X130750000Y-79750000D03*
X133250000Y-81750000D03*
X134750000Y-83750000D03*
X138000000Y-87000000D03*
X136500000Y-89750000D03*
X133750000Y-88250000D03*
X140750000Y-85000000D03*
X137500000Y-81750000D03*
X136750000Y-79250000D03*
X137750000Y-77250000D03*
X133750000Y-76250000D03*
X140000000Y-77250000D03*
X141250000Y-76250000D03*
X143750000Y-77250000D03*
X143250000Y-78500000D03*
X141500000Y-80500000D03*
X143000000Y-82750000D03*
X146000000Y-83750000D03*
X144750000Y-82750000D03*
X143500000Y-80250000D03*
X146000000Y-80250000D03*
X146000000Y-77000000D03*
X148500000Y-75000000D03*
X148000000Y-80250000D03*
X148000000Y-82250000D03*
X135750000Y-69500000D03*
X129750000Y-69500000D03*
X135500000Y-76250000D03*
X141750000Y-69500000D03*
X147750000Y-69500000D03*
X145750000Y-63000000D03*
X141750000Y-63000000D03*
X135500000Y-63000000D03*
X135500000Y-60500000D03*
X135500000Y-58250000D03*
X135500000Y-56250000D03*
X134500000Y-54000000D03*
X133000000Y-52000000D03*
X133000000Y-50000000D03*
X130000000Y-50000000D03*
X130000000Y-52000000D03*
X131250000Y-54000000D03*
X131250000Y-56250000D03*
X131250000Y-58250000D03*
X131250000Y-63000000D03*
X130500000Y-65500000D03*
X130000000Y-67500000D03*
X135500000Y-65250000D03*
X141750000Y-65250000D03*
X141750000Y-60500000D03*
X141750000Y-58250000D03*
X140500000Y-55750000D03*
X139000000Y-53500000D03*
X137250000Y-51750000D03*
X136000000Y-50000000D03*
X139250000Y-50000000D03*
X142000000Y-52250000D03*
X145000000Y-54250000D03*
X146750000Y-58250000D03*
X146750000Y-60750000D03*
X147750000Y-65500000D03*
X126750000Y-68500000D03*
X126750000Y-58250000D03*
X115000000Y-70000000D03*
X115000000Y-76000000D03*
X115000000Y-88000000D03*
X151500000Y-82000000D03*
X154000000Y-80750000D03*
X156250000Y-80750000D03*
X156500000Y-77500000D03*
X159750000Y-77500000D03*
X160000000Y-76000000D03*
X157500000Y-85250000D03*
X157500000Y-89250000D03*
X160000000Y-89250000D03*
X160000000Y-62250000D03*
X160000000Y-49750000D03*
X157500000Y-45000000D03*
X154250000Y-49750000D03*
X148000000Y-49750000D03*
X148000000Y-51500000D03*
X154250000Y-51500000D03*
X154250000Y-54750000D03*
X154250000Y-59000000D03*
X151500000Y-59000000D03*
X151500000Y-54750000D03*
X151500000Y-51500000D03*
X150000000Y-45000000D03*
X150000000Y-42500000D03*
X118750000Y-84250000D03*
X124000000Y-82000000D03*
X120750000Y-80000000D03*
X121000000Y-78000000D03*
G04 #@! TO.N,/CAM_SDA*
X150320000Y-62200000D03*
X150670000Y-60020000D03*
G04 #@! TO.N,/FPGA_SCL*
X149347919Y-77340000D03*
X149370000Y-79060000D03*
G04 #@! TO.N,/FPGA_SDA*
X148807919Y-83670000D03*
G04 #@! TO.N,/HSD0-*
X139250000Y-87500000D03*
G04 #@! TO.N,/LPD1-*
X131090000Y-73030000D03*
X135490000Y-72950000D03*
G04 #@! TO.N,/LPD0+*
X133760000Y-78250000D03*
X132220000Y-79790000D03*
G04 #@! TO.N,/LPCLK+*
X124420000Y-83750000D03*
X129560000Y-83750000D03*
X134950700Y-82311021D03*
X136290000Y-81030000D03*
X137925584Y-80519514D03*
X139846955Y-80486511D03*
X143975000Y-76110000D03*
X145660000Y-76120000D03*
G04 #@! TO.N,/HSCLK+*
X149168929Y-84832032D03*
G04 #@! TO.N,/LPCLK-*
X124386909Y-82900643D03*
X129560000Y-82890000D03*
X134470000Y-81610000D03*
X135680000Y-80380000D03*
X137910000Y-79630000D03*
X139770000Y-79640000D03*
G04 #@! TO.N,/LPD1+*
X134820000Y-78760000D03*
X137820000Y-75890000D03*
X139660000Y-75880000D03*
X132790000Y-80670000D03*
G04 #@! TO.N,/CAM_ENABLE*
X140150000Y-41850000D03*
X140060000Y-49350000D03*
G04 #@! TD*
D13*
G04 #@! TO.N,+3V3*
X134000000Y-85000000D02*
X131000000Y-82000000D01*
X131000000Y-82000000D02*
X130000000Y-81000000D01*
X130000000Y-81000000D02*
X125000000Y-81000000D01*
G04 #@! TO.N,GND*
X131750000Y-77500000D02*
X131750000Y-78750000D01*
X131750000Y-78750000D02*
X130750000Y-79750000D01*
X130750000Y-79750000D02*
X132750000Y-81750000D01*
X132750000Y-81750000D02*
X133250000Y-81750000D01*
X133250000Y-81750000D02*
X133250000Y-82250000D01*
X133250000Y-82250000D02*
X134750000Y-83750000D01*
X138000000Y-87000000D02*
X136500000Y-88500000D01*
X136500000Y-88500000D02*
X136500000Y-89750000D01*
X138299999Y-86700001D02*
X138299999Y-86450001D01*
X138000000Y-87000000D02*
X138299999Y-86700001D01*
X138299999Y-86450001D02*
X139750000Y-85000000D01*
X139750000Y-85000000D02*
X140750000Y-85000000D01*
X136750000Y-80575736D02*
X136750000Y-79250000D01*
X137500000Y-81750000D02*
X137500000Y-81325736D01*
X137500000Y-81325736D02*
X136750000Y-80575736D01*
X137750000Y-77250000D02*
X136750000Y-76250000D01*
X135500000Y-76250000D02*
X133750000Y-76250000D01*
X136750000Y-76250000D02*
X135500000Y-76250000D01*
X137750000Y-77250000D02*
X140000000Y-77250000D01*
X141250000Y-76250000D02*
X142750000Y-76250000D01*
X142750000Y-76250000D02*
X143750000Y-77250000D01*
X143250000Y-78500000D02*
X141500000Y-80250000D01*
X141500000Y-80250000D02*
X141500000Y-80500000D01*
X143000000Y-82750000D02*
X144000000Y-83750000D01*
X144000000Y-83750000D02*
X146000000Y-83750000D01*
X144750000Y-82750000D02*
X144750000Y-81500000D01*
X144750000Y-81500000D02*
X143500000Y-80250000D01*
X143500000Y-80250000D02*
X146000000Y-80250000D01*
X146000000Y-77000000D02*
X146500000Y-77000000D01*
X146500000Y-77000000D02*
X148500000Y-75000000D01*
X150310000Y-73190000D02*
X148500000Y-75000000D01*
X152030000Y-73190000D02*
X150310000Y-73190000D01*
X146000000Y-80250000D02*
X148000000Y-80250000D01*
X136065001Y-74184999D02*
X136750000Y-73500000D01*
X135750000Y-69500000D02*
X129750000Y-69500000D01*
X135500000Y-76250000D02*
X135799999Y-75950001D01*
X135799999Y-75950001D02*
X135799999Y-74700001D01*
X136750000Y-73500000D02*
X136750000Y-70000000D01*
X135799999Y-74700001D02*
X136065001Y-74434999D01*
X136750000Y-70000000D02*
X136250000Y-69500000D01*
X136065001Y-74434999D02*
X136065001Y-74184999D01*
X136250000Y-69500000D02*
X135750000Y-69500000D01*
X141750000Y-69500000D02*
X143000000Y-69500000D01*
X147750000Y-65000000D02*
X145750000Y-63000000D01*
X141750000Y-63000000D02*
X135500000Y-63000000D01*
X135500000Y-60500000D02*
X135500000Y-58250000D01*
X135500000Y-56250000D02*
X135500000Y-55000000D01*
X135500000Y-55000000D02*
X134500000Y-54000000D01*
X133000000Y-52000000D02*
X133000000Y-50000000D01*
X130000000Y-50000000D02*
X130000000Y-52000000D01*
X131250000Y-54000000D02*
X131250000Y-56250000D01*
X131250000Y-56250000D02*
X131250000Y-58250000D01*
X131250000Y-58250000D02*
X131250000Y-63000000D01*
X130500000Y-65500000D02*
X130500000Y-67000000D01*
X130500000Y-67000000D02*
X130000000Y-67500000D01*
X135500000Y-69250000D02*
X135750000Y-69500000D01*
X135500000Y-65250000D02*
X135500000Y-69250000D01*
X141750000Y-63000000D02*
X141750000Y-60500000D01*
X141750000Y-58250000D02*
X141750000Y-57000000D01*
X141750000Y-57000000D02*
X140500000Y-55750000D01*
X139000000Y-53500000D02*
X137250000Y-51750000D01*
X136000000Y-50000000D02*
X139250000Y-50000000D01*
X142000000Y-52250000D02*
X143000000Y-52250000D01*
X143000000Y-52250000D02*
X145000000Y-54250000D01*
X146750000Y-58250000D02*
X146750000Y-60750000D01*
X147750000Y-65500000D02*
X147750000Y-65000000D01*
X147750000Y-69500000D02*
X147750000Y-65500000D01*
X129750000Y-69500000D02*
X127750000Y-69500000D01*
X127750000Y-69500000D02*
X126750000Y-68500000D01*
X126450001Y-68200001D02*
X116049999Y-68200001D01*
X126750000Y-68500000D02*
X126450001Y-68200001D01*
X116049999Y-68200001D02*
X115000000Y-69250000D01*
X115000000Y-69250000D02*
X115000000Y-70000000D01*
X115000000Y-76000000D02*
X115000000Y-88000000D01*
X152400000Y-86360000D02*
X152400000Y-82900000D01*
X152400000Y-82900000D02*
X151500000Y-82000000D01*
X151500000Y-82000000D02*
X152750000Y-82000000D01*
X152750000Y-82000000D02*
X154000000Y-80750000D01*
X154000000Y-80750000D02*
X156250000Y-80750000D01*
X156500000Y-77500000D02*
X159750000Y-77500000D01*
X156250000Y-80750000D02*
X156250000Y-84000000D01*
X156250000Y-84000000D02*
X157500000Y-85250000D01*
X157500000Y-89250000D02*
X160000000Y-89250000D01*
X160000000Y-76000000D02*
X160000000Y-62250000D01*
X160000000Y-49750000D02*
X160000000Y-47500000D01*
X160000000Y-47500000D02*
X157500000Y-45000000D01*
X160000000Y-49750000D02*
X154250000Y-49750000D01*
X148000000Y-49750000D02*
X148000000Y-51500000D01*
X154250000Y-54750000D02*
X154250000Y-59000000D01*
X151500000Y-59000000D02*
X151500000Y-54750000D01*
X148000000Y-49750000D02*
X148000000Y-47000000D01*
X148000000Y-47000000D02*
X150000000Y-45000000D01*
X115000000Y-88000000D02*
X117000000Y-88000000D01*
X117000000Y-88000000D02*
X116750000Y-87750000D01*
X116750000Y-87750000D02*
X116750000Y-86250000D01*
X116750000Y-86250000D02*
X118750000Y-84250000D01*
X120750000Y-80000000D02*
X120750000Y-78250000D01*
X120750000Y-78250000D02*
X121000000Y-78000000D01*
D14*
G04 #@! TO.N,/CAM_SDA*
X150320000Y-62200000D02*
X150320000Y-60370000D01*
X150320000Y-60370000D02*
X150670000Y-60020000D01*
G04 #@! TO.N,/FPGA_SCL*
X149347919Y-77340000D02*
X149347919Y-79037919D01*
X149347919Y-79037919D02*
X149370000Y-79060000D01*
G04 #@! TO.N,/FPGA_SDA*
X147320000Y-85157919D02*
X148807919Y-83670000D01*
X147320000Y-86360000D02*
X147320000Y-85157919D01*
G04 #@! TO.N,/HSD0-*
X144780000Y-86360000D02*
X143510000Y-87630000D01*
X139549999Y-87799999D02*
X141060001Y-87799999D01*
X139250000Y-87500000D02*
X139549999Y-87799999D01*
X141230000Y-87630000D02*
X141060001Y-87799999D01*
X143510000Y-87630000D02*
X141230000Y-87630000D01*
G04 #@! TO.N,/LPD1-*
X131514264Y-73030000D02*
X131594264Y-72950000D01*
X131090000Y-73030000D02*
X131514264Y-73030000D01*
X131594264Y-72950000D02*
X135490000Y-72950000D01*
G04 #@! TO.N,/LPD0+*
X133760000Y-78250000D02*
X132220000Y-79790000D01*
G04 #@! TO.N,/LPCLK+*
X124420000Y-83750000D02*
X129560000Y-83750000D01*
X134950700Y-82311021D02*
X136231721Y-81030000D01*
X136231721Y-81030000D02*
X136290000Y-81030000D01*
X137925584Y-80519514D02*
X139813952Y-80519514D01*
X139813952Y-80519514D02*
X139846955Y-80486511D01*
X143975000Y-76110000D02*
X145650000Y-76110000D01*
X145650000Y-76110000D02*
X145660000Y-76120000D01*
G04 #@! TO.N,/HSCLK+*
X148169999Y-88050001D02*
X147320000Y-88900000D01*
X148410001Y-87809999D02*
X148169999Y-88050001D01*
X148410001Y-86015224D02*
X148410001Y-87809999D01*
X149168929Y-85256296D02*
X148410001Y-86015224D01*
X149168929Y-84832032D02*
X149168929Y-85256296D01*
G04 #@! TO.N,/LPCLK-*
X124386909Y-82900643D02*
X129549357Y-82900643D01*
X129549357Y-82900643D02*
X129560000Y-82890000D01*
X134769999Y-81310001D02*
X134769999Y-81250001D01*
X134470000Y-81610000D02*
X134769999Y-81310001D01*
X134769999Y-81250001D02*
X135640000Y-80380000D01*
X135640000Y-80380000D02*
X135680000Y-80380000D01*
X137910000Y-79630000D02*
X139760000Y-79630000D01*
X139760000Y-79630000D02*
X139770000Y-79640000D01*
G04 #@! TO.N,/LPD1+*
X137820000Y-75890000D02*
X139650000Y-75890000D01*
X139650000Y-75890000D02*
X139660000Y-75880000D01*
X134690000Y-78760000D02*
X134820000Y-78760000D01*
X132790000Y-80670000D02*
X134690000Y-78760000D01*
G04 #@! TO.N,/CAM_ENABLE*
X140150000Y-41850000D02*
X140150000Y-49260000D01*
X140150000Y-49260000D02*
X140060000Y-49350000D01*
G04 #@! TD*
D15*
G04 #@! TO.N,GND*
G36*
X139215000Y-42035983D02*
X139357345Y-42379635D01*
X139425000Y-42447290D01*
X139425001Y-48662709D01*
X139267345Y-48820365D01*
X139125000Y-49164017D01*
X139125000Y-49535983D01*
X139267345Y-49879635D01*
X139530365Y-50142655D01*
X139874017Y-50285000D01*
X140245983Y-50285000D01*
X140589635Y-50142655D01*
X140852655Y-49879635D01*
X140995000Y-49535983D01*
X140995000Y-49164017D01*
X140875000Y-48874311D01*
X140875000Y-42447290D01*
X140942655Y-42379635D01*
X141085000Y-42035983D01*
X141085000Y-41735000D01*
X160265001Y-41735000D01*
X160265000Y-83927612D01*
X160265000Y-83927613D01*
X160265001Y-90265000D01*
X155570062Y-90265000D01*
X156010625Y-89970625D01*
X156338839Y-89479418D01*
X156454092Y-88900000D01*
X156338839Y-88320582D01*
X156010625Y-87829375D01*
X155992381Y-87817184D01*
X156037765Y-87808157D01*
X156247809Y-87667809D01*
X156388157Y-87457765D01*
X156437440Y-87210000D01*
X156437440Y-85510000D01*
X156388157Y-85262235D01*
X156247809Y-85052191D01*
X156037765Y-84911843D01*
X155790000Y-84862560D01*
X154090000Y-84862560D01*
X153842235Y-84911843D01*
X153632191Y-85052191D01*
X153491843Y-85262235D01*
X153471261Y-85365708D01*
X153166924Y-85088355D01*
X152756890Y-84918524D01*
X152527000Y-85039845D01*
X152527000Y-86233000D01*
X152547000Y-86233000D01*
X152547000Y-86487000D01*
X152527000Y-86487000D01*
X152527000Y-88773000D01*
X152547000Y-88773000D01*
X152547000Y-89027000D01*
X152527000Y-89027000D01*
X152527000Y-89047000D01*
X152273000Y-89047000D01*
X152273000Y-89027000D01*
X152253000Y-89027000D01*
X152253000Y-88773000D01*
X152273000Y-88773000D01*
X152273000Y-86487000D01*
X152253000Y-86487000D01*
X152253000Y-86233000D01*
X152273000Y-86233000D01*
X152273000Y-85039845D01*
X152043110Y-84918524D01*
X151633076Y-85088355D01*
X151204817Y-85478642D01*
X151143843Y-85608478D01*
X150930625Y-85289375D01*
X150439418Y-84961161D01*
X150103929Y-84894428D01*
X150103929Y-84646049D01*
X149961584Y-84302397D01*
X149698564Y-84039377D01*
X149671584Y-84028202D01*
X149742919Y-83855983D01*
X149742919Y-83484017D01*
X149600574Y-83140365D01*
X149337554Y-82877345D01*
X148993902Y-82735000D01*
X148621936Y-82735000D01*
X148278284Y-82877345D01*
X148015264Y-83140365D01*
X147872919Y-83484017D01*
X147872919Y-83579695D01*
X146857836Y-84594779D01*
X146797306Y-84635224D01*
X146756860Y-84695755D01*
X146756858Y-84695757D01*
X146637065Y-84875039D01*
X146601442Y-85054131D01*
X146249375Y-85289375D01*
X146050000Y-85587761D01*
X145850625Y-85289375D01*
X145359418Y-84961161D01*
X144926256Y-84875000D01*
X144633744Y-84875000D01*
X144200582Y-84961161D01*
X143709375Y-85289375D01*
X143510000Y-85587761D01*
X143310625Y-85289375D01*
X142819418Y-84961161D01*
X142386256Y-84875000D01*
X142093744Y-84875000D01*
X141660582Y-84961161D01*
X141169375Y-85289375D01*
X140841161Y-85780582D01*
X140725908Y-86360000D01*
X140841161Y-86939418D01*
X140877398Y-86993651D01*
X140755654Y-87074999D01*
X140085996Y-87074999D01*
X140042655Y-86970365D01*
X139779635Y-86707345D01*
X139435983Y-86565000D01*
X139064017Y-86565000D01*
X138720365Y-86707345D01*
X138457345Y-86970365D01*
X138315000Y-87314017D01*
X138315000Y-87685983D01*
X138457345Y-88029635D01*
X138720365Y-88292655D01*
X139064017Y-88435000D01*
X139195380Y-88435000D01*
X139267118Y-88482934D01*
X139478595Y-88524999D01*
X139478599Y-88524999D01*
X139549999Y-88539201D01*
X139621399Y-88524999D01*
X140800500Y-88524999D01*
X140725908Y-88900000D01*
X140841161Y-89479418D01*
X141169375Y-89970625D01*
X141609938Y-90265000D01*
X132710062Y-90265000D01*
X133150625Y-89970625D01*
X133478839Y-89479418D01*
X133594092Y-88900000D01*
X133478839Y-88320582D01*
X133150625Y-87829375D01*
X133132381Y-87817184D01*
X133177765Y-87808157D01*
X133387809Y-87667809D01*
X133528157Y-87457765D01*
X133577440Y-87210000D01*
X133577440Y-85837007D01*
X133814017Y-85935000D01*
X134185983Y-85935000D01*
X134529635Y-85792655D01*
X134792655Y-85529635D01*
X134935000Y-85185983D01*
X134935000Y-84814017D01*
X134792655Y-84470365D01*
X134529635Y-84207345D01*
X134185983Y-84065000D01*
X134139802Y-84065000D01*
X131590331Y-81515530D01*
X131590329Y-81515527D01*
X130590331Y-80515530D01*
X130547929Y-80452071D01*
X130296537Y-80284096D01*
X130074852Y-80240000D01*
X130074847Y-80240000D01*
X130000000Y-80225112D01*
X129925153Y-80240000D01*
X125562290Y-80240000D01*
X125529635Y-80207345D01*
X125185983Y-80065000D01*
X124814017Y-80065000D01*
X124470365Y-80207345D01*
X124207345Y-80470365D01*
X124065000Y-80814017D01*
X124065000Y-81185983D01*
X124207345Y-81529635D01*
X124470365Y-81792655D01*
X124814017Y-81935000D01*
X125185983Y-81935000D01*
X125529635Y-81792655D01*
X125562290Y-81760000D01*
X129685199Y-81760000D01*
X129975103Y-82049904D01*
X129745983Y-81955000D01*
X129374017Y-81955000D01*
X129030365Y-82097345D01*
X128952067Y-82175643D01*
X124984199Y-82175643D01*
X124916544Y-82107988D01*
X124572892Y-81965643D01*
X124200926Y-81965643D01*
X123857274Y-82107988D01*
X123594254Y-82371008D01*
X123451909Y-82714660D01*
X123451909Y-83086626D01*
X123567325Y-83365266D01*
X123485000Y-83564017D01*
X123485000Y-83935983D01*
X123627345Y-84279635D01*
X123890365Y-84542655D01*
X124234017Y-84685000D01*
X124605983Y-84685000D01*
X124949635Y-84542655D01*
X125017290Y-84475000D01*
X128962710Y-84475000D01*
X129030365Y-84542655D01*
X129374017Y-84685000D01*
X129745983Y-84685000D01*
X130089635Y-84542655D01*
X130352655Y-84279635D01*
X130495000Y-83935983D01*
X130495000Y-83564017D01*
X130393925Y-83320000D01*
X130495000Y-83075983D01*
X130495000Y-82704017D01*
X130400096Y-82474898D01*
X130515527Y-82590329D01*
X130515530Y-82590331D01*
X132787758Y-84862560D01*
X131230000Y-84862560D01*
X130982235Y-84911843D01*
X130772191Y-85052191D01*
X130631843Y-85262235D01*
X130611261Y-85365708D01*
X130306924Y-85088355D01*
X129896890Y-84918524D01*
X129667000Y-85039845D01*
X129667000Y-86233000D01*
X129687000Y-86233000D01*
X129687000Y-86487000D01*
X129667000Y-86487000D01*
X129667000Y-88773000D01*
X129687000Y-88773000D01*
X129687000Y-89027000D01*
X129667000Y-89027000D01*
X129667000Y-89047000D01*
X129413000Y-89047000D01*
X129413000Y-89027000D01*
X129393000Y-89027000D01*
X129393000Y-88773000D01*
X129413000Y-88773000D01*
X129413000Y-86487000D01*
X129393000Y-86487000D01*
X129393000Y-86233000D01*
X129413000Y-86233000D01*
X129413000Y-85039845D01*
X129183110Y-84918524D01*
X128773076Y-85088355D01*
X128344817Y-85478642D01*
X128283843Y-85608478D01*
X128070625Y-85289375D01*
X127579418Y-84961161D01*
X127146256Y-84875000D01*
X126853744Y-84875000D01*
X126420582Y-84961161D01*
X125929375Y-85289375D01*
X125730000Y-85587761D01*
X125530625Y-85289375D01*
X125039418Y-84961161D01*
X124606256Y-84875000D01*
X124313744Y-84875000D01*
X123880582Y-84961161D01*
X123389375Y-85289375D01*
X123190000Y-85587761D01*
X122990625Y-85289375D01*
X122499418Y-84961161D01*
X122066256Y-84875000D01*
X121773744Y-84875000D01*
X121340582Y-84961161D01*
X120849375Y-85289375D01*
X120650000Y-85587761D01*
X120450625Y-85289375D01*
X119959418Y-84961161D01*
X119526256Y-84875000D01*
X119233744Y-84875000D01*
X118800582Y-84961161D01*
X118309375Y-85289375D01*
X117981161Y-85780582D01*
X117865908Y-86360000D01*
X117981161Y-86939418D01*
X118309375Y-87430625D01*
X118607761Y-87630000D01*
X118309375Y-87829375D01*
X117981161Y-88320582D01*
X117865908Y-88900000D01*
X117981161Y-89479418D01*
X118309375Y-89970625D01*
X118749938Y-90265000D01*
X113735000Y-90265000D01*
X113735000Y-79604017D01*
X131285000Y-79604017D01*
X131285000Y-79975983D01*
X131427345Y-80319635D01*
X131690365Y-80582655D01*
X131855000Y-80650849D01*
X131855000Y-80855983D01*
X131997345Y-81199635D01*
X132260365Y-81462655D01*
X132604017Y-81605000D01*
X132975983Y-81605000D01*
X133319635Y-81462655D01*
X133582655Y-81199635D01*
X133725000Y-80855983D01*
X133725000Y-80758084D01*
X134782519Y-79695000D01*
X135005983Y-79695000D01*
X135068680Y-79669030D01*
X134887345Y-79850365D01*
X134745000Y-80194017D01*
X134745000Y-80249695D01*
X134319696Y-80675000D01*
X134284017Y-80675000D01*
X133940365Y-80817345D01*
X133677345Y-81080365D01*
X133535000Y-81424017D01*
X133535000Y-81795983D01*
X133677345Y-82139635D01*
X133940365Y-82402655D01*
X134015700Y-82433860D01*
X134015700Y-82497004D01*
X134158045Y-82840656D01*
X134421065Y-83103676D01*
X134764717Y-83246021D01*
X135136683Y-83246021D01*
X135480335Y-83103676D01*
X135743355Y-82840656D01*
X135885700Y-82497004D01*
X135885700Y-82401325D01*
X136322026Y-81965000D01*
X136475983Y-81965000D01*
X136819635Y-81822655D01*
X137082655Y-81559635D01*
X137225000Y-81215983D01*
X137225000Y-81141220D01*
X137395949Y-81312169D01*
X137739601Y-81454514D01*
X138111567Y-81454514D01*
X138455219Y-81312169D01*
X138522874Y-81244514D01*
X139282668Y-81244514D01*
X139317320Y-81279166D01*
X139660972Y-81421511D01*
X140032938Y-81421511D01*
X140376590Y-81279166D01*
X140639610Y-81016146D01*
X140781955Y-80672494D01*
X140781955Y-80300528D01*
X140645196Y-79970362D01*
X140705000Y-79825983D01*
X140705000Y-79454017D01*
X140562655Y-79110365D01*
X140299635Y-78847345D01*
X139955983Y-78705000D01*
X139584017Y-78705000D01*
X139240365Y-78847345D01*
X139182710Y-78905000D01*
X138507290Y-78905000D01*
X138439635Y-78837345D01*
X138095983Y-78695000D01*
X137724017Y-78695000D01*
X137380365Y-78837345D01*
X137117345Y-79100365D01*
X136975000Y-79444017D01*
X136975000Y-79815983D01*
X137089979Y-80093569D01*
X136990584Y-80333531D01*
X136990584Y-80408294D01*
X136819635Y-80237345D01*
X136594283Y-80144001D01*
X136472655Y-79850365D01*
X136209635Y-79587345D01*
X135865983Y-79445000D01*
X135494017Y-79445000D01*
X135431320Y-79470970D01*
X135612655Y-79289635D01*
X135755000Y-78945983D01*
X135755000Y-78574017D01*
X135612655Y-78230365D01*
X135349635Y-77967345D01*
X135005983Y-77825000D01*
X134634017Y-77825000D01*
X134601564Y-77838442D01*
X134552655Y-77720365D01*
X134289635Y-77457345D01*
X133945983Y-77315000D01*
X133574017Y-77315000D01*
X133230365Y-77457345D01*
X132967345Y-77720365D01*
X132825000Y-78064017D01*
X132825000Y-78159695D01*
X132129696Y-78855000D01*
X132034017Y-78855000D01*
X131690365Y-78997345D01*
X131427345Y-79260365D01*
X131285000Y-79604017D01*
X113735000Y-79604017D01*
X113735000Y-77154017D01*
X148412919Y-77154017D01*
X148412919Y-77525983D01*
X148555264Y-77869635D01*
X148622919Y-77937290D01*
X148622920Y-78484790D01*
X148577345Y-78530365D01*
X148435000Y-78874017D01*
X148435000Y-79245983D01*
X148577345Y-79589635D01*
X148840365Y-79852655D01*
X149184017Y-79995000D01*
X149555983Y-79995000D01*
X149899635Y-79852655D01*
X150162655Y-79589635D01*
X150305000Y-79245983D01*
X150305000Y-78874017D01*
X150162655Y-78530365D01*
X150072919Y-78440629D01*
X150072919Y-77937290D01*
X150140574Y-77869635D01*
X150282919Y-77525983D01*
X150282919Y-77154017D01*
X150140574Y-76810365D01*
X149877554Y-76547345D01*
X149533902Y-76405000D01*
X149161936Y-76405000D01*
X148818284Y-76547345D01*
X148555264Y-76810365D01*
X148412919Y-77154017D01*
X113735000Y-77154017D01*
X113735000Y-75704017D01*
X136885000Y-75704017D01*
X136885000Y-76075983D01*
X137027345Y-76419635D01*
X137290365Y-76682655D01*
X137634017Y-76825000D01*
X138005983Y-76825000D01*
X138349635Y-76682655D01*
X138417290Y-76615000D01*
X139072710Y-76615000D01*
X139130365Y-76672655D01*
X139474017Y-76815000D01*
X139845983Y-76815000D01*
X140189635Y-76672655D01*
X140452655Y-76409635D01*
X140595000Y-76065983D01*
X140595000Y-75924017D01*
X143040000Y-75924017D01*
X143040000Y-76295983D01*
X143182345Y-76639635D01*
X143445365Y-76902655D01*
X143789017Y-77045000D01*
X144160983Y-77045000D01*
X144504635Y-76902655D01*
X144572290Y-76835000D01*
X145052710Y-76835000D01*
X145130365Y-76912655D01*
X145474017Y-77055000D01*
X145845983Y-77055000D01*
X146189635Y-76912655D01*
X146452655Y-76649635D01*
X146595000Y-76305983D01*
X146595000Y-75934017D01*
X146452655Y-75590365D01*
X146189635Y-75327345D01*
X145845983Y-75185000D01*
X145474017Y-75185000D01*
X145130365Y-75327345D01*
X145072710Y-75385000D01*
X144572290Y-75385000D01*
X144504635Y-75317345D01*
X144160983Y-75175000D01*
X143789017Y-75175000D01*
X143445365Y-75317345D01*
X143182345Y-75580365D01*
X143040000Y-75924017D01*
X140595000Y-75924017D01*
X140595000Y-75694017D01*
X140452655Y-75350365D01*
X140189635Y-75087345D01*
X139845983Y-74945000D01*
X139474017Y-74945000D01*
X139130365Y-75087345D01*
X139052710Y-75165000D01*
X138417290Y-75165000D01*
X138349635Y-75097345D01*
X138005983Y-74955000D01*
X137634017Y-74955000D01*
X137290365Y-75097345D01*
X137027345Y-75360365D01*
X136885000Y-75704017D01*
X113735000Y-75704017D01*
X113735000Y-72844017D01*
X130155000Y-72844017D01*
X130155000Y-73215983D01*
X130297345Y-73559635D01*
X130560365Y-73822655D01*
X130904017Y-73965000D01*
X131275983Y-73965000D01*
X131619635Y-73822655D01*
X131712523Y-73729767D01*
X131797145Y-73712935D01*
X131853918Y-73675000D01*
X134892710Y-73675000D01*
X134960365Y-73742655D01*
X135304017Y-73885000D01*
X135675983Y-73885000D01*
X136019635Y-73742655D01*
X136282655Y-73479635D01*
X136425000Y-73135983D01*
X136425000Y-72764017D01*
X136282655Y-72420365D01*
X136019635Y-72157345D01*
X135675983Y-72015000D01*
X135304017Y-72015000D01*
X134960365Y-72157345D01*
X134892710Y-72225000D01*
X131665662Y-72225000D01*
X131594263Y-72210798D01*
X131568106Y-72216001D01*
X131275983Y-72095000D01*
X130904017Y-72095000D01*
X130560365Y-72237345D01*
X130297345Y-72500365D01*
X130155000Y-72844017D01*
X113735000Y-72844017D01*
X113735000Y-62014017D01*
X149385000Y-62014017D01*
X149385000Y-62385983D01*
X149527345Y-62729635D01*
X149790365Y-62992655D01*
X150134017Y-63135000D01*
X150505983Y-63135000D01*
X150849635Y-62992655D01*
X151112655Y-62729635D01*
X151255000Y-62385983D01*
X151255000Y-62014017D01*
X151112655Y-61670365D01*
X151045000Y-61602710D01*
X151045000Y-60876707D01*
X151199635Y-60812655D01*
X151462655Y-60549635D01*
X151605000Y-60205983D01*
X151605000Y-59834017D01*
X151462655Y-59490365D01*
X151199635Y-59227345D01*
X150855983Y-59085000D01*
X150484017Y-59085000D01*
X150140365Y-59227345D01*
X149877345Y-59490365D01*
X149735000Y-59834017D01*
X149735000Y-59940551D01*
X149637065Y-60087120D01*
X149580798Y-60370000D01*
X149595001Y-60441405D01*
X149595000Y-61602710D01*
X149527345Y-61670365D01*
X149385000Y-62014017D01*
X113735000Y-62014017D01*
X113735000Y-41735000D01*
X139215000Y-41735000D01*
X139215000Y-42035983D01*
X139215000Y-42035983D01*
G37*
X139215000Y-42035983D02*
X139357345Y-42379635D01*
X139425000Y-42447290D01*
X139425001Y-48662709D01*
X139267345Y-48820365D01*
X139125000Y-49164017D01*
X139125000Y-49535983D01*
X139267345Y-49879635D01*
X139530365Y-50142655D01*
X139874017Y-50285000D01*
X140245983Y-50285000D01*
X140589635Y-50142655D01*
X140852655Y-49879635D01*
X140995000Y-49535983D01*
X140995000Y-49164017D01*
X140875000Y-48874311D01*
X140875000Y-42447290D01*
X140942655Y-42379635D01*
X141085000Y-42035983D01*
X141085000Y-41735000D01*
X160265001Y-41735000D01*
X160265000Y-83927612D01*
X160265000Y-83927613D01*
X160265001Y-90265000D01*
X155570062Y-90265000D01*
X156010625Y-89970625D01*
X156338839Y-89479418D01*
X156454092Y-88900000D01*
X156338839Y-88320582D01*
X156010625Y-87829375D01*
X155992381Y-87817184D01*
X156037765Y-87808157D01*
X156247809Y-87667809D01*
X156388157Y-87457765D01*
X156437440Y-87210000D01*
X156437440Y-85510000D01*
X156388157Y-85262235D01*
X156247809Y-85052191D01*
X156037765Y-84911843D01*
X155790000Y-84862560D01*
X154090000Y-84862560D01*
X153842235Y-84911843D01*
X153632191Y-85052191D01*
X153491843Y-85262235D01*
X153471261Y-85365708D01*
X153166924Y-85088355D01*
X152756890Y-84918524D01*
X152527000Y-85039845D01*
X152527000Y-86233000D01*
X152547000Y-86233000D01*
X152547000Y-86487000D01*
X152527000Y-86487000D01*
X152527000Y-88773000D01*
X152547000Y-88773000D01*
X152547000Y-89027000D01*
X152527000Y-89027000D01*
X152527000Y-89047000D01*
X152273000Y-89047000D01*
X152273000Y-89027000D01*
X152253000Y-89027000D01*
X152253000Y-88773000D01*
X152273000Y-88773000D01*
X152273000Y-86487000D01*
X152253000Y-86487000D01*
X152253000Y-86233000D01*
X152273000Y-86233000D01*
X152273000Y-85039845D01*
X152043110Y-84918524D01*
X151633076Y-85088355D01*
X151204817Y-85478642D01*
X151143843Y-85608478D01*
X150930625Y-85289375D01*
X150439418Y-84961161D01*
X150103929Y-84894428D01*
X150103929Y-84646049D01*
X149961584Y-84302397D01*
X149698564Y-84039377D01*
X149671584Y-84028202D01*
X149742919Y-83855983D01*
X149742919Y-83484017D01*
X149600574Y-83140365D01*
X149337554Y-82877345D01*
X148993902Y-82735000D01*
X148621936Y-82735000D01*
X148278284Y-82877345D01*
X148015264Y-83140365D01*
X147872919Y-83484017D01*
X147872919Y-83579695D01*
X146857836Y-84594779D01*
X146797306Y-84635224D01*
X146756860Y-84695755D01*
X146756858Y-84695757D01*
X146637065Y-84875039D01*
X146601442Y-85054131D01*
X146249375Y-85289375D01*
X146050000Y-85587761D01*
X145850625Y-85289375D01*
X145359418Y-84961161D01*
X144926256Y-84875000D01*
X144633744Y-84875000D01*
X144200582Y-84961161D01*
X143709375Y-85289375D01*
X143510000Y-85587761D01*
X143310625Y-85289375D01*
X142819418Y-84961161D01*
X142386256Y-84875000D01*
X142093744Y-84875000D01*
X141660582Y-84961161D01*
X141169375Y-85289375D01*
X140841161Y-85780582D01*
X140725908Y-86360000D01*
X140841161Y-86939418D01*
X140877398Y-86993651D01*
X140755654Y-87074999D01*
X140085996Y-87074999D01*
X140042655Y-86970365D01*
X139779635Y-86707345D01*
X139435983Y-86565000D01*
X139064017Y-86565000D01*
X138720365Y-86707345D01*
X138457345Y-86970365D01*
X138315000Y-87314017D01*
X138315000Y-87685983D01*
X138457345Y-88029635D01*
X138720365Y-88292655D01*
X139064017Y-88435000D01*
X139195380Y-88435000D01*
X139267118Y-88482934D01*
X139478595Y-88524999D01*
X139478599Y-88524999D01*
X139549999Y-88539201D01*
X139621399Y-88524999D01*
X140800500Y-88524999D01*
X140725908Y-88900000D01*
X140841161Y-89479418D01*
X141169375Y-89970625D01*
X141609938Y-90265000D01*
X132710062Y-90265000D01*
X133150625Y-89970625D01*
X133478839Y-89479418D01*
X133594092Y-88900000D01*
X133478839Y-88320582D01*
X133150625Y-87829375D01*
X133132381Y-87817184D01*
X133177765Y-87808157D01*
X133387809Y-87667809D01*
X133528157Y-87457765D01*
X133577440Y-87210000D01*
X133577440Y-85837007D01*
X133814017Y-85935000D01*
X134185983Y-85935000D01*
X134529635Y-85792655D01*
X134792655Y-85529635D01*
X134935000Y-85185983D01*
X134935000Y-84814017D01*
X134792655Y-84470365D01*
X134529635Y-84207345D01*
X134185983Y-84065000D01*
X134139802Y-84065000D01*
X131590331Y-81515530D01*
X131590329Y-81515527D01*
X130590331Y-80515530D01*
X130547929Y-80452071D01*
X130296537Y-80284096D01*
X130074852Y-80240000D01*
X130074847Y-80240000D01*
X130000000Y-80225112D01*
X129925153Y-80240000D01*
X125562290Y-80240000D01*
X125529635Y-80207345D01*
X125185983Y-80065000D01*
X124814017Y-80065000D01*
X124470365Y-80207345D01*
X124207345Y-80470365D01*
X124065000Y-80814017D01*
X124065000Y-81185983D01*
X124207345Y-81529635D01*
X124470365Y-81792655D01*
X124814017Y-81935000D01*
X125185983Y-81935000D01*
X125529635Y-81792655D01*
X125562290Y-81760000D01*
X129685199Y-81760000D01*
X129975103Y-82049904D01*
X129745983Y-81955000D01*
X129374017Y-81955000D01*
X129030365Y-82097345D01*
X128952067Y-82175643D01*
X124984199Y-82175643D01*
X124916544Y-82107988D01*
X124572892Y-81965643D01*
X124200926Y-81965643D01*
X123857274Y-82107988D01*
X123594254Y-82371008D01*
X123451909Y-82714660D01*
X123451909Y-83086626D01*
X123567325Y-83365266D01*
X123485000Y-83564017D01*
X123485000Y-83935983D01*
X123627345Y-84279635D01*
X123890365Y-84542655D01*
X124234017Y-84685000D01*
X124605983Y-84685000D01*
X124949635Y-84542655D01*
X125017290Y-84475000D01*
X128962710Y-84475000D01*
X129030365Y-84542655D01*
X129374017Y-84685000D01*
X129745983Y-84685000D01*
X130089635Y-84542655D01*
X130352655Y-84279635D01*
X130495000Y-83935983D01*
X130495000Y-83564017D01*
X130393925Y-83320000D01*
X130495000Y-83075983D01*
X130495000Y-82704017D01*
X130400096Y-82474898D01*
X130515527Y-82590329D01*
X130515530Y-82590331D01*
X132787758Y-84862560D01*
X131230000Y-84862560D01*
X130982235Y-84911843D01*
X130772191Y-85052191D01*
X130631843Y-85262235D01*
X130611261Y-85365708D01*
X130306924Y-85088355D01*
X129896890Y-84918524D01*
X129667000Y-85039845D01*
X129667000Y-86233000D01*
X129687000Y-86233000D01*
X129687000Y-86487000D01*
X129667000Y-86487000D01*
X129667000Y-88773000D01*
X129687000Y-88773000D01*
X129687000Y-89027000D01*
X129667000Y-89027000D01*
X129667000Y-89047000D01*
X129413000Y-89047000D01*
X129413000Y-89027000D01*
X129393000Y-89027000D01*
X129393000Y-88773000D01*
X129413000Y-88773000D01*
X129413000Y-86487000D01*
X129393000Y-86487000D01*
X129393000Y-86233000D01*
X129413000Y-86233000D01*
X129413000Y-85039845D01*
X129183110Y-84918524D01*
X128773076Y-85088355D01*
X128344817Y-85478642D01*
X128283843Y-85608478D01*
X128070625Y-85289375D01*
X127579418Y-84961161D01*
X127146256Y-84875000D01*
X126853744Y-84875000D01*
X126420582Y-84961161D01*
X125929375Y-85289375D01*
X125730000Y-85587761D01*
X125530625Y-85289375D01*
X125039418Y-84961161D01*
X124606256Y-84875000D01*
X124313744Y-84875000D01*
X123880582Y-84961161D01*
X123389375Y-85289375D01*
X123190000Y-85587761D01*
X122990625Y-85289375D01*
X122499418Y-84961161D01*
X122066256Y-84875000D01*
X121773744Y-84875000D01*
X121340582Y-84961161D01*
X120849375Y-85289375D01*
X120650000Y-85587761D01*
X120450625Y-85289375D01*
X119959418Y-84961161D01*
X119526256Y-84875000D01*
X119233744Y-84875000D01*
X118800582Y-84961161D01*
X118309375Y-85289375D01*
X117981161Y-85780582D01*
X117865908Y-86360000D01*
X117981161Y-86939418D01*
X118309375Y-87430625D01*
X118607761Y-87630000D01*
X118309375Y-87829375D01*
X117981161Y-88320582D01*
X117865908Y-88900000D01*
X117981161Y-89479418D01*
X118309375Y-89970625D01*
X118749938Y-90265000D01*
X113735000Y-90265000D01*
X113735000Y-79604017D01*
X131285000Y-79604017D01*
X131285000Y-79975983D01*
X131427345Y-80319635D01*
X131690365Y-80582655D01*
X131855000Y-80650849D01*
X131855000Y-80855983D01*
X131997345Y-81199635D01*
X132260365Y-81462655D01*
X132604017Y-81605000D01*
X132975983Y-81605000D01*
X133319635Y-81462655D01*
X133582655Y-81199635D01*
X133725000Y-80855983D01*
X133725000Y-80758084D01*
X134782519Y-79695000D01*
X135005983Y-79695000D01*
X135068680Y-79669030D01*
X134887345Y-79850365D01*
X134745000Y-80194017D01*
X134745000Y-80249695D01*
X134319696Y-80675000D01*
X134284017Y-80675000D01*
X133940365Y-80817345D01*
X133677345Y-81080365D01*
X133535000Y-81424017D01*
X133535000Y-81795983D01*
X133677345Y-82139635D01*
X133940365Y-82402655D01*
X134015700Y-82433860D01*
X134015700Y-82497004D01*
X134158045Y-82840656D01*
X134421065Y-83103676D01*
X134764717Y-83246021D01*
X135136683Y-83246021D01*
X135480335Y-83103676D01*
X135743355Y-82840656D01*
X135885700Y-82497004D01*
X135885700Y-82401325D01*
X136322026Y-81965000D01*
X136475983Y-81965000D01*
X136819635Y-81822655D01*
X137082655Y-81559635D01*
X137225000Y-81215983D01*
X137225000Y-81141220D01*
X137395949Y-81312169D01*
X137739601Y-81454514D01*
X138111567Y-81454514D01*
X138455219Y-81312169D01*
X138522874Y-81244514D01*
X139282668Y-81244514D01*
X139317320Y-81279166D01*
X139660972Y-81421511D01*
X140032938Y-81421511D01*
X140376590Y-81279166D01*
X140639610Y-81016146D01*
X140781955Y-80672494D01*
X140781955Y-80300528D01*
X140645196Y-79970362D01*
X140705000Y-79825983D01*
X140705000Y-79454017D01*
X140562655Y-79110365D01*
X140299635Y-78847345D01*
X139955983Y-78705000D01*
X139584017Y-78705000D01*
X139240365Y-78847345D01*
X139182710Y-78905000D01*
X138507290Y-78905000D01*
X138439635Y-78837345D01*
X138095983Y-78695000D01*
X137724017Y-78695000D01*
X137380365Y-78837345D01*
X137117345Y-79100365D01*
X136975000Y-79444017D01*
X136975000Y-79815983D01*
X137089979Y-80093569D01*
X136990584Y-80333531D01*
X136990584Y-80408294D01*
X136819635Y-80237345D01*
X136594283Y-80144001D01*
X136472655Y-79850365D01*
X136209635Y-79587345D01*
X135865983Y-79445000D01*
X135494017Y-79445000D01*
X135431320Y-79470970D01*
X135612655Y-79289635D01*
X135755000Y-78945983D01*
X135755000Y-78574017D01*
X135612655Y-78230365D01*
X135349635Y-77967345D01*
X135005983Y-77825000D01*
X134634017Y-77825000D01*
X134601564Y-77838442D01*
X134552655Y-77720365D01*
X134289635Y-77457345D01*
X133945983Y-77315000D01*
X133574017Y-77315000D01*
X133230365Y-77457345D01*
X132967345Y-77720365D01*
X132825000Y-78064017D01*
X132825000Y-78159695D01*
X132129696Y-78855000D01*
X132034017Y-78855000D01*
X131690365Y-78997345D01*
X131427345Y-79260365D01*
X131285000Y-79604017D01*
X113735000Y-79604017D01*
X113735000Y-77154017D01*
X148412919Y-77154017D01*
X148412919Y-77525983D01*
X148555264Y-77869635D01*
X148622919Y-77937290D01*
X148622920Y-78484790D01*
X148577345Y-78530365D01*
X148435000Y-78874017D01*
X148435000Y-79245983D01*
X148577345Y-79589635D01*
X148840365Y-79852655D01*
X149184017Y-79995000D01*
X149555983Y-79995000D01*
X149899635Y-79852655D01*
X150162655Y-79589635D01*
X150305000Y-79245983D01*
X150305000Y-78874017D01*
X150162655Y-78530365D01*
X150072919Y-78440629D01*
X150072919Y-77937290D01*
X150140574Y-77869635D01*
X150282919Y-77525983D01*
X150282919Y-77154017D01*
X150140574Y-76810365D01*
X149877554Y-76547345D01*
X149533902Y-76405000D01*
X149161936Y-76405000D01*
X148818284Y-76547345D01*
X148555264Y-76810365D01*
X148412919Y-77154017D01*
X113735000Y-77154017D01*
X113735000Y-75704017D01*
X136885000Y-75704017D01*
X136885000Y-76075983D01*
X137027345Y-76419635D01*
X137290365Y-76682655D01*
X137634017Y-76825000D01*
X138005983Y-76825000D01*
X138349635Y-76682655D01*
X138417290Y-76615000D01*
X139072710Y-76615000D01*
X139130365Y-76672655D01*
X139474017Y-76815000D01*
X139845983Y-76815000D01*
X140189635Y-76672655D01*
X140452655Y-76409635D01*
X140595000Y-76065983D01*
X140595000Y-75924017D01*
X143040000Y-75924017D01*
X143040000Y-76295983D01*
X143182345Y-76639635D01*
X143445365Y-76902655D01*
X143789017Y-77045000D01*
X144160983Y-77045000D01*
X144504635Y-76902655D01*
X144572290Y-76835000D01*
X145052710Y-76835000D01*
X145130365Y-76912655D01*
X145474017Y-77055000D01*
X145845983Y-77055000D01*
X146189635Y-76912655D01*
X146452655Y-76649635D01*
X146595000Y-76305983D01*
X146595000Y-75934017D01*
X146452655Y-75590365D01*
X146189635Y-75327345D01*
X145845983Y-75185000D01*
X145474017Y-75185000D01*
X145130365Y-75327345D01*
X145072710Y-75385000D01*
X144572290Y-75385000D01*
X144504635Y-75317345D01*
X144160983Y-75175000D01*
X143789017Y-75175000D01*
X143445365Y-75317345D01*
X143182345Y-75580365D01*
X143040000Y-75924017D01*
X140595000Y-75924017D01*
X140595000Y-75694017D01*
X140452655Y-75350365D01*
X140189635Y-75087345D01*
X139845983Y-74945000D01*
X139474017Y-74945000D01*
X139130365Y-75087345D01*
X139052710Y-75165000D01*
X138417290Y-75165000D01*
X138349635Y-75097345D01*
X138005983Y-74955000D01*
X137634017Y-74955000D01*
X137290365Y-75097345D01*
X137027345Y-75360365D01*
X136885000Y-75704017D01*
X113735000Y-75704017D01*
X113735000Y-72844017D01*
X130155000Y-72844017D01*
X130155000Y-73215983D01*
X130297345Y-73559635D01*
X130560365Y-73822655D01*
X130904017Y-73965000D01*
X131275983Y-73965000D01*
X131619635Y-73822655D01*
X131712523Y-73729767D01*
X131797145Y-73712935D01*
X131853918Y-73675000D01*
X134892710Y-73675000D01*
X134960365Y-73742655D01*
X135304017Y-73885000D01*
X135675983Y-73885000D01*
X136019635Y-73742655D01*
X136282655Y-73479635D01*
X136425000Y-73135983D01*
X136425000Y-72764017D01*
X136282655Y-72420365D01*
X136019635Y-72157345D01*
X135675983Y-72015000D01*
X135304017Y-72015000D01*
X134960365Y-72157345D01*
X134892710Y-72225000D01*
X131665662Y-72225000D01*
X131594263Y-72210798D01*
X131568106Y-72216001D01*
X131275983Y-72095000D01*
X130904017Y-72095000D01*
X130560365Y-72237345D01*
X130297345Y-72500365D01*
X130155000Y-72844017D01*
X113735000Y-72844017D01*
X113735000Y-62014017D01*
X149385000Y-62014017D01*
X149385000Y-62385983D01*
X149527345Y-62729635D01*
X149790365Y-62992655D01*
X150134017Y-63135000D01*
X150505983Y-63135000D01*
X150849635Y-62992655D01*
X151112655Y-62729635D01*
X151255000Y-62385983D01*
X151255000Y-62014017D01*
X151112655Y-61670365D01*
X151045000Y-61602710D01*
X151045000Y-60876707D01*
X151199635Y-60812655D01*
X151462655Y-60549635D01*
X151605000Y-60205983D01*
X151605000Y-59834017D01*
X151462655Y-59490365D01*
X151199635Y-59227345D01*
X150855983Y-59085000D01*
X150484017Y-59085000D01*
X150140365Y-59227345D01*
X149877345Y-59490365D01*
X149735000Y-59834017D01*
X149735000Y-59940551D01*
X149637065Y-60087120D01*
X149580798Y-60370000D01*
X149595001Y-60441405D01*
X149595000Y-61602710D01*
X149527345Y-61670365D01*
X149385000Y-62014017D01*
X113735000Y-62014017D01*
X113735000Y-41735000D01*
X139215000Y-41735000D01*
X139215000Y-42035983D01*
G04 #@! TD*
M02*
