M48
;DRILL file {KiCad 5.0.0} date Mon Jul 16 13:27:49 2018
;FORMAT={-:-/ absolute / inch / decimal}
FMAT,2
INCH,TZ
T1C0.0118
T2C0.0394
%
G90
G05
M72
T1
X4.5276Y-2.7559
X4.5276Y-2.9921
X4.5276Y-3.4646
X4.6752Y-3.3169
X4.7539Y-3.1496
X4.7638Y-3.0709
X4.8819Y-3.2283
X4.8971Y-3.2638
X4.8984Y-3.2972
X4.9213Y-3.189
X4.9902Y-2.2933
X4.9902Y-2.6969
X5.Y-3.0709
X5.1008Y-3.2634
X5.1008Y-3.2972
X5.1083Y-2.7362
X5.1181Y-1.9685
X5.1181Y-2.0472
X5.1181Y-2.6575
X5.1378Y-2.5787
X5.1476Y-3.1398
X5.161Y-2.8752
X5.1673Y-2.126
X5.1673Y-2.2146
X5.1673Y-2.2933
X5.1673Y-2.4803
X5.187Y-2.9823
X5.187Y-3.0512
X5.2055Y-3.1413
X5.228Y-3.176
X5.2362Y-1.9685
X5.2362Y-2.0472
X5.2461Y-3.2185
X5.2657Y-3.002
X5.2657Y-3.4744
X5.2661Y-3.0807
X5.2756Y-3.3465
X5.2941Y-3.213
X5.2953Y-2.126
X5.3051Y-3.2972
X5.3079Y-3.1008
X5.313Y-3.2406
X5.3343Y-2.872
X5.3346Y-2.2146
X5.3346Y-2.2933
X5.3346Y-2.3819
X5.3346Y-2.4803
X5.3346Y-2.5689
X5.3346Y-3.002
X5.3417Y-3.1646
X5.3445Y-2.7362
X5.3543Y-1.9685
X5.3657Y-3.1902
X5.374Y-3.5335
X5.3839Y-3.1201
X5.4035Y-2.0374
X5.4134Y-3.2185
X5.4232Y-3.0413
X5.426Y-2.9878
X5.4295Y-3.135
X5.4301Y-3.1701
X5.4331Y-3.4252
X5.4724Y-2.1063
X5.4823Y-1.9685
X5.4823Y-3.4449
X5.4984Y-2.9874
X5.5028Y-3.1354
X5.5058Y-3.1688
X5.5118Y-3.0413
X5.5142Y-1.9429
X5.5177Y-1.6476
X5.5315Y-2.1949
X5.5413Y-3.3465
X5.561Y-3.002
X5.5709Y-3.1693
X5.5807Y-2.2933
X5.5807Y-2.3819
X5.5807Y-2.4803
X5.5807Y-2.5689
X5.5807Y-2.7362
X5.5906Y-2.0571
X5.6299Y-3.2579
X5.6398Y-3.0906
X5.6496Y-3.1594
X5.6594Y-3.0413
X5.6683Y-2.9965
X5.6988Y-3.2579
X5.7087Y-2.1358
X5.7346Y-2.9969
X5.7382Y-2.4803
X5.748Y-3.0315
X5.748Y-3.1594
X5.748Y-3.2972
X5.7776Y-2.2933
X5.7776Y-2.3917
X5.8169Y-2.5787
X5.8169Y-2.7362
X5.8268Y-1.9587
X5.8268Y-2.0276
X5.8268Y-3.1594
X5.8268Y-3.2382
X5.8465Y-2.9528
X5.8586Y-3.2941
X5.8728Y-3.3398
X5.8798Y-3.0449
X5.8807Y-3.1126
X5.9055Y-1.6732
X5.9055Y-1.7717
X5.9181Y-2.4488
X5.9319Y-2.363
X5.9646Y-2.0276
X5.9646Y-2.1555
X5.9646Y-2.3228
X5.9646Y-3.2283
X5.9854Y-2.8815
X6.063Y-3.1791
X6.0646Y-2.6323
X6.0728Y-1.9587
X6.0728Y-2.0276
X6.0728Y-2.1555
X6.0728Y-2.3228
X6.1516Y-3.1791
X6.1614Y-3.0512
X6.2008Y-1.7717
X6.2008Y-3.3563
X6.2008Y-3.5138
X6.2087Y-2.5508
X6.2283Y-2.9524
X6.2894Y-3.0512
X6.2992Y-1.9587
X6.2992Y-2.4508
X6.2992Y-2.9921
X6.2992Y-3.5138
T2
X4.7Y-3.4
X4.7Y-3.5
X4.8Y-3.4
X4.8Y-3.5
X4.9Y-3.4
X4.9Y-3.5
X5.Y-3.4
X5.Y-3.5
X5.1Y-3.4
X5.1Y-3.5
X5.2Y-3.4
X5.2Y-3.5
X5.6Y-3.4
X5.6Y-3.5
X5.7Y-3.4
X5.7Y-3.5
X5.8Y-3.4
X5.8Y-3.5
X5.9Y-3.4
X5.9Y-3.5
X6.Y-3.4
X6.Y-3.5
X6.1Y-3.4
X6.1Y-3.5
T0
M30
