G04 #@! TF.GenerationSoftware,KiCad,Pcbnew,5.0.0*
G04 #@! TF.CreationDate,2018-07-16T13:27:37+02:00*
G04 #@! TF.ProjectId,csipmod,637369706D6F642E6B696361645F7063,rev?*
G04 #@! TF.SameCoordinates,Original*
G04 #@! TF.FileFunction,Legend,Top*
G04 #@! TF.FilePolarity,Positive*
%FSLAX46Y46*%
G04 Gerber Fmt 4.6, Leading zero omitted, Abs format (unit mm)*
G04 Created by KiCad (PCBNEW 5.0.0) date Mon Jul 16 13:27:37 2018*
%MOMM*%
%LPD*%
G01*
G04 APERTURE LIST*
%ADD10C,0.300000*%
%ADD11C,0.120000*%
%ADD12C,0.150000*%
G04 APERTURE END LIST*
D10*
X116409285Y-60678571D02*
X115909285Y-59964285D01*
X115552142Y-60678571D02*
X115552142Y-59178571D01*
X116123571Y-59178571D01*
X116266428Y-59250000D01*
X116337857Y-59321428D01*
X116409285Y-59464285D01*
X116409285Y-59678571D01*
X116337857Y-59821428D01*
X116266428Y-59892857D01*
X116123571Y-59964285D01*
X115552142Y-59964285D01*
X117623571Y-60607142D02*
X117480714Y-60678571D01*
X117195000Y-60678571D01*
X117052142Y-60607142D01*
X116980714Y-60464285D01*
X116980714Y-59892857D01*
X117052142Y-59750000D01*
X117195000Y-59678571D01*
X117480714Y-59678571D01*
X117623571Y-59750000D01*
X117695000Y-59892857D01*
X117695000Y-60035714D01*
X116980714Y-60178571D01*
X118195000Y-59678571D02*
X118552142Y-60678571D01*
X118909285Y-59678571D01*
X121409285Y-60678571D02*
X120552142Y-60678571D01*
X120980714Y-60678571D02*
X120980714Y-59178571D01*
X120837857Y-59392857D01*
X120695000Y-59535714D01*
X120552142Y-59607142D01*
X122052142Y-60535714D02*
X122123571Y-60607142D01*
X122052142Y-60678571D01*
X121980714Y-60607142D01*
X122052142Y-60535714D01*
X122052142Y-60678571D01*
X123052142Y-59178571D02*
X123195000Y-59178571D01*
X123337857Y-59250000D01*
X123409285Y-59321428D01*
X123480714Y-59464285D01*
X123552142Y-59750000D01*
X123552142Y-60107142D01*
X123480714Y-60392857D01*
X123409285Y-60535714D01*
X123337857Y-60607142D01*
X123195000Y-60678571D01*
X123052142Y-60678571D01*
X122909285Y-60607142D01*
X122837857Y-60535714D01*
X122766428Y-60392857D01*
X122695000Y-60107142D01*
X122695000Y-59750000D01*
X122766428Y-59464285D01*
X122837857Y-59321428D01*
X122909285Y-59250000D01*
X123052142Y-59178571D01*
X115552142Y-54403571D02*
X115552142Y-52903571D01*
X116123571Y-52903571D01*
X116266428Y-52975000D01*
X116337857Y-53046428D01*
X116409285Y-53189285D01*
X116409285Y-53403571D01*
X116337857Y-53546428D01*
X116266428Y-53617857D01*
X116123571Y-53689285D01*
X115552142Y-53689285D01*
X117052142Y-54403571D02*
X117052142Y-53403571D01*
X117052142Y-52903571D02*
X116980714Y-52975000D01*
X117052142Y-53046428D01*
X117123571Y-52975000D01*
X117052142Y-52903571D01*
X117052142Y-53046428D01*
X118623571Y-54260714D02*
X118552142Y-54332142D01*
X118337857Y-54403571D01*
X118195000Y-54403571D01*
X117980714Y-54332142D01*
X117837857Y-54189285D01*
X117766428Y-54046428D01*
X117695000Y-53760714D01*
X117695000Y-53546428D01*
X117766428Y-53260714D01*
X117837857Y-53117857D01*
X117980714Y-52975000D01*
X118195000Y-52903571D01*
X118337857Y-52903571D01*
X118552142Y-52975000D01*
X118623571Y-53046428D01*
X119909285Y-54403571D02*
X119909285Y-53617857D01*
X119837857Y-53475000D01*
X119695000Y-53403571D01*
X119409285Y-53403571D01*
X119266428Y-53475000D01*
X119909285Y-54332142D02*
X119766428Y-54403571D01*
X119409285Y-54403571D01*
X119266428Y-54332142D01*
X119195000Y-54189285D01*
X119195000Y-54046428D01*
X119266428Y-53903571D01*
X119409285Y-53832142D01*
X119766428Y-53832142D01*
X119909285Y-53760714D01*
X120623571Y-54403571D02*
X120623571Y-53403571D01*
X120623571Y-53546428D02*
X120695000Y-53475000D01*
X120837857Y-53403571D01*
X121052142Y-53403571D01*
X121195000Y-53475000D01*
X121266428Y-53617857D01*
X121266428Y-54403571D01*
X121266428Y-53617857D02*
X121337857Y-53475000D01*
X121480714Y-53403571D01*
X121695000Y-53403571D01*
X121837857Y-53475000D01*
X121909285Y-53617857D01*
X121909285Y-54403571D01*
X115337857Y-55953571D02*
X115909285Y-55953571D01*
X115552142Y-55453571D02*
X115552142Y-56739285D01*
X115623571Y-56882142D01*
X115766428Y-56953571D01*
X115909285Y-56953571D01*
X116623571Y-56953571D02*
X116480714Y-56882142D01*
X116409285Y-56810714D01*
X116337857Y-56667857D01*
X116337857Y-56239285D01*
X116409285Y-56096428D01*
X116480714Y-56025000D01*
X116623571Y-55953571D01*
X116837857Y-55953571D01*
X116980714Y-56025000D01*
X117052142Y-56096428D01*
X117123571Y-56239285D01*
X117123571Y-56667857D01*
X117052142Y-56810714D01*
X116980714Y-56882142D01*
X116837857Y-56953571D01*
X116623571Y-56953571D01*
X118909285Y-56953571D02*
X118909285Y-55953571D01*
X118909285Y-55453571D02*
X118837857Y-55525000D01*
X118909285Y-55596428D01*
X118980714Y-55525000D01*
X118909285Y-55453571D01*
X118909285Y-55596428D01*
X120266428Y-56882142D02*
X120123571Y-56953571D01*
X119837857Y-56953571D01*
X119695000Y-56882142D01*
X119623571Y-56810714D01*
X119552142Y-56667857D01*
X119552142Y-56239285D01*
X119623571Y-56096428D01*
X119695000Y-56025000D01*
X119837857Y-55953571D01*
X120123571Y-55953571D01*
X120266428Y-56025000D01*
X121480714Y-56882142D02*
X121337857Y-56953571D01*
X121052142Y-56953571D01*
X120909285Y-56882142D01*
X120837857Y-56739285D01*
X120837857Y-56167857D01*
X120909285Y-56025000D01*
X121052142Y-55953571D01*
X121337857Y-55953571D01*
X121480714Y-56025000D01*
X121552142Y-56167857D01*
X121552142Y-56310714D01*
X120837857Y-56453571D01*
X122195000Y-56953571D02*
X122195000Y-55453571D01*
X122195000Y-56025000D02*
X122337857Y-55953571D01*
X122623571Y-55953571D01*
X122766428Y-56025000D01*
X122837857Y-56096428D01*
X122909285Y-56239285D01*
X122909285Y-56667857D01*
X122837857Y-56810714D01*
X122766428Y-56882142D01*
X122623571Y-56953571D01*
X122337857Y-56953571D01*
X122195000Y-56882142D01*
X123552142Y-56953571D02*
X123552142Y-55953571D01*
X123552142Y-56239285D02*
X123623571Y-56096428D01*
X123695000Y-56025000D01*
X123837857Y-55953571D01*
X123980714Y-55953571D01*
X125052142Y-56882142D02*
X124909285Y-56953571D01*
X124623571Y-56953571D01*
X124480714Y-56882142D01*
X124409285Y-56739285D01*
X124409285Y-56167857D01*
X124480714Y-56025000D01*
X124623571Y-55953571D01*
X124909285Y-55953571D01*
X125052142Y-56025000D01*
X125123571Y-56167857D01*
X125123571Y-56310714D01*
X124409285Y-56453571D01*
X126409285Y-56953571D02*
X126409285Y-56167857D01*
X126337857Y-56025000D01*
X126195000Y-55953571D01*
X125909285Y-55953571D01*
X125766428Y-56025000D01*
X126409285Y-56882142D02*
X126266428Y-56953571D01*
X125909285Y-56953571D01*
X125766428Y-56882142D01*
X125695000Y-56739285D01*
X125695000Y-56596428D01*
X125766428Y-56453571D01*
X125909285Y-56382142D01*
X126266428Y-56382142D01*
X126409285Y-56310714D01*
X127123571Y-56953571D02*
X127123571Y-55453571D01*
X127266428Y-56382142D02*
X127695000Y-56953571D01*
X127695000Y-55953571D02*
X127123571Y-56525000D01*
X128909285Y-56882142D02*
X128766428Y-56953571D01*
X128480714Y-56953571D01*
X128337857Y-56882142D01*
X128266428Y-56739285D01*
X128266428Y-56167857D01*
X128337857Y-56025000D01*
X128480714Y-55953571D01*
X128766428Y-55953571D01*
X128909285Y-56025000D01*
X128980714Y-56167857D01*
X128980714Y-56310714D01*
X128266428Y-56453571D01*
X129623571Y-56953571D02*
X129623571Y-55953571D01*
X129623571Y-56239285D02*
X129695000Y-56096428D01*
X129766428Y-56025000D01*
X129909285Y-55953571D01*
X130052142Y-55953571D01*
X145214285Y-50678571D02*
X144357142Y-50678571D01*
X144785714Y-50678571D02*
X144785714Y-49178571D01*
X144642857Y-49392857D01*
X144500000Y-49535714D01*
X144357142Y-49607142D01*
X146571428Y-49178571D02*
X145857142Y-49178571D01*
X145785714Y-49892857D01*
X145857142Y-49821428D01*
X146000000Y-49750000D01*
X146357142Y-49750000D01*
X146500000Y-49821428D01*
X146571428Y-49892857D01*
X146642857Y-50035714D01*
X146642857Y-50392857D01*
X146571428Y-50535714D01*
X146500000Y-50607142D01*
X146357142Y-50678571D01*
X146000000Y-50678571D01*
X145857142Y-50607142D01*
X145785714Y-50535714D01*
X129928571Y-50678571D02*
X129071428Y-50678571D01*
X129500000Y-50678571D02*
X129500000Y-49178571D01*
X129357142Y-49392857D01*
X129214285Y-49535714D01*
X129071428Y-49607142D01*
D11*
G04 #@! TO.C,R29*
X152292017Y-46790000D02*
X152707983Y-46790000D01*
X152292017Y-48210000D02*
X152707983Y-48210000D01*
G04 #@! TO.C,C1*
X156942017Y-72790000D02*
X157357983Y-72790000D01*
X156942017Y-74210000D02*
X157357983Y-74210000D01*
G04 #@! TO.C,C3*
X156642017Y-67210000D02*
X157057983Y-67210000D01*
X156642017Y-65790000D02*
X157057983Y-65790000D01*
G04 #@! TO.C,C4*
X152292017Y-44290000D02*
X152707983Y-44290000D01*
X152292017Y-45710000D02*
X152707983Y-45710000D01*
D12*
G04 #@! TO.C,P1*
X144400000Y-47500000D02*
X148200000Y-47500000D01*
X147400000Y-43900000D02*
X144600000Y-43900000D01*
X148200000Y-44700000D02*
X147400000Y-43900000D01*
X148200000Y-47500000D02*
X148200000Y-44700000D01*
X144400000Y-43900000D02*
X144600000Y-43900000D01*
X129600000Y-43900000D02*
X128600000Y-43900000D01*
X126600000Y-43900000D02*
X128600000Y-43900000D01*
X125800000Y-44700000D02*
X126600000Y-43900000D01*
X125800000Y-47500000D02*
X125800000Y-44700000D01*
X129600000Y-47500000D02*
X125800000Y-47500000D01*
D11*
G04 #@! TO.C,J1*
X133410000Y-90340000D02*
X118050000Y-90340000D01*
X118050000Y-90340000D02*
X118050000Y-93000000D01*
X118050000Y-93000000D02*
X133410000Y-93000000D01*
X133410000Y-93000000D02*
X133410000Y-90340000D01*
X132460000Y-93000000D02*
X132460000Y-99000000D01*
X132460000Y-99000000D02*
X131700000Y-99000000D01*
X131700000Y-99000000D02*
X131700000Y-93000000D01*
X132400000Y-93000000D02*
X132400000Y-99000000D01*
X132280000Y-93000000D02*
X132280000Y-99000000D01*
X132160000Y-93000000D02*
X132160000Y-99000000D01*
X132040000Y-93000000D02*
X132040000Y-99000000D01*
X131920000Y-93000000D02*
X131920000Y-99000000D01*
X131800000Y-93000000D02*
X131800000Y-99000000D01*
X132460000Y-89942929D02*
X132460000Y-90340000D01*
X131700000Y-89942929D02*
X131700000Y-90340000D01*
X132460000Y-87470000D02*
X132460000Y-87857071D01*
X131700000Y-87470000D02*
X131700000Y-87857071D01*
X130810000Y-90340000D02*
X130810000Y-93000000D01*
X129920000Y-93000000D02*
X129920000Y-99000000D01*
X129920000Y-99000000D02*
X129160000Y-99000000D01*
X129160000Y-99000000D02*
X129160000Y-93000000D01*
X129920000Y-89942929D02*
X129920000Y-90340000D01*
X129160000Y-89942929D02*
X129160000Y-90340000D01*
X129920000Y-87402929D02*
X129920000Y-87857071D01*
X129160000Y-87402929D02*
X129160000Y-87857071D01*
X128270000Y-90340000D02*
X128270000Y-93000000D01*
X127380000Y-93000000D02*
X127380000Y-99000000D01*
X127380000Y-99000000D02*
X126620000Y-99000000D01*
X126620000Y-99000000D02*
X126620000Y-93000000D01*
X127380000Y-89942929D02*
X127380000Y-90340000D01*
X126620000Y-89942929D02*
X126620000Y-90340000D01*
X127380000Y-87402929D02*
X127380000Y-87857071D01*
X126620000Y-87402929D02*
X126620000Y-87857071D01*
X125730000Y-90340000D02*
X125730000Y-93000000D01*
X124840000Y-93000000D02*
X124840000Y-99000000D01*
X124840000Y-99000000D02*
X124080000Y-99000000D01*
X124080000Y-99000000D02*
X124080000Y-93000000D01*
X124840000Y-89942929D02*
X124840000Y-90340000D01*
X124080000Y-89942929D02*
X124080000Y-90340000D01*
X124840000Y-87402929D02*
X124840000Y-87857071D01*
X124080000Y-87402929D02*
X124080000Y-87857071D01*
X123190000Y-90340000D02*
X123190000Y-93000000D01*
X122300000Y-93000000D02*
X122300000Y-99000000D01*
X122300000Y-99000000D02*
X121540000Y-99000000D01*
X121540000Y-99000000D02*
X121540000Y-93000000D01*
X122300000Y-89942929D02*
X122300000Y-90340000D01*
X121540000Y-89942929D02*
X121540000Y-90340000D01*
X122300000Y-87402929D02*
X122300000Y-87857071D01*
X121540000Y-87402929D02*
X121540000Y-87857071D01*
X120650000Y-90340000D02*
X120650000Y-93000000D01*
X119760000Y-93000000D02*
X119760000Y-99000000D01*
X119760000Y-99000000D02*
X119000000Y-99000000D01*
X119000000Y-99000000D02*
X119000000Y-93000000D01*
X119760000Y-89942929D02*
X119760000Y-90340000D01*
X119000000Y-89942929D02*
X119000000Y-90340000D01*
X119760000Y-87402929D02*
X119760000Y-87857071D01*
X119000000Y-87402929D02*
X119000000Y-87857071D01*
X132080000Y-85090000D02*
X133350000Y-85090000D01*
X133350000Y-85090000D02*
X133350000Y-86360000D01*
G04 #@! TO.C,J2*
X156210000Y-85090000D02*
X156210000Y-86360000D01*
X154940000Y-85090000D02*
X156210000Y-85090000D01*
X141860000Y-87402929D02*
X141860000Y-87857071D01*
X142620000Y-87402929D02*
X142620000Y-87857071D01*
X141860000Y-89942929D02*
X141860000Y-90340000D01*
X142620000Y-89942929D02*
X142620000Y-90340000D01*
X141860000Y-99000000D02*
X141860000Y-93000000D01*
X142620000Y-99000000D02*
X141860000Y-99000000D01*
X142620000Y-93000000D02*
X142620000Y-99000000D01*
X143510000Y-90340000D02*
X143510000Y-93000000D01*
X144400000Y-87402929D02*
X144400000Y-87857071D01*
X145160000Y-87402929D02*
X145160000Y-87857071D01*
X144400000Y-89942929D02*
X144400000Y-90340000D01*
X145160000Y-89942929D02*
X145160000Y-90340000D01*
X144400000Y-99000000D02*
X144400000Y-93000000D01*
X145160000Y-99000000D02*
X144400000Y-99000000D01*
X145160000Y-93000000D02*
X145160000Y-99000000D01*
X146050000Y-90340000D02*
X146050000Y-93000000D01*
X146940000Y-87402929D02*
X146940000Y-87857071D01*
X147700000Y-87402929D02*
X147700000Y-87857071D01*
X146940000Y-89942929D02*
X146940000Y-90340000D01*
X147700000Y-89942929D02*
X147700000Y-90340000D01*
X146940000Y-99000000D02*
X146940000Y-93000000D01*
X147700000Y-99000000D02*
X146940000Y-99000000D01*
X147700000Y-93000000D02*
X147700000Y-99000000D01*
X148590000Y-90340000D02*
X148590000Y-93000000D01*
X149480000Y-87402929D02*
X149480000Y-87857071D01*
X150240000Y-87402929D02*
X150240000Y-87857071D01*
X149480000Y-89942929D02*
X149480000Y-90340000D01*
X150240000Y-89942929D02*
X150240000Y-90340000D01*
X149480000Y-99000000D02*
X149480000Y-93000000D01*
X150240000Y-99000000D02*
X149480000Y-99000000D01*
X150240000Y-93000000D02*
X150240000Y-99000000D01*
X151130000Y-90340000D02*
X151130000Y-93000000D01*
X152020000Y-87402929D02*
X152020000Y-87857071D01*
X152780000Y-87402929D02*
X152780000Y-87857071D01*
X152020000Y-89942929D02*
X152020000Y-90340000D01*
X152780000Y-89942929D02*
X152780000Y-90340000D01*
X152020000Y-99000000D02*
X152020000Y-93000000D01*
X152780000Y-99000000D02*
X152020000Y-99000000D01*
X152780000Y-93000000D02*
X152780000Y-99000000D01*
X153670000Y-90340000D02*
X153670000Y-93000000D01*
X154560000Y-87470000D02*
X154560000Y-87857071D01*
X155320000Y-87470000D02*
X155320000Y-87857071D01*
X154560000Y-89942929D02*
X154560000Y-90340000D01*
X155320000Y-89942929D02*
X155320000Y-90340000D01*
X154660000Y-93000000D02*
X154660000Y-99000000D01*
X154780000Y-93000000D02*
X154780000Y-99000000D01*
X154900000Y-93000000D02*
X154900000Y-99000000D01*
X155020000Y-93000000D02*
X155020000Y-99000000D01*
X155140000Y-93000000D02*
X155140000Y-99000000D01*
X155260000Y-93000000D02*
X155260000Y-99000000D01*
X154560000Y-99000000D02*
X154560000Y-93000000D01*
X155320000Y-99000000D02*
X154560000Y-99000000D01*
X155320000Y-93000000D02*
X155320000Y-99000000D01*
X156270000Y-93000000D02*
X156270000Y-90340000D01*
X140910000Y-93000000D02*
X156270000Y-93000000D01*
X140910000Y-90340000D02*
X140910000Y-93000000D01*
X156270000Y-90340000D02*
X140910000Y-90340000D01*
G04 #@! TO.C,U2*
X150500000Y-71500000D02*
X150500000Y-68500000D01*
X153500000Y-71500000D02*
X153500000Y-67500000D01*
G04 #@! TO.C,U1*
X158610000Y-70900000D02*
X158610000Y-69100000D01*
X155390000Y-69100000D02*
X155390000Y-71550000D01*
G04 #@! TO.C,R29*
D12*
X155207142Y-47952380D02*
X154873809Y-47476190D01*
X154635714Y-47952380D02*
X154635714Y-46952380D01*
X155016666Y-46952380D01*
X155111904Y-47000000D01*
X155159523Y-47047619D01*
X155207142Y-47142857D01*
X155207142Y-47285714D01*
X155159523Y-47380952D01*
X155111904Y-47428571D01*
X155016666Y-47476190D01*
X154635714Y-47476190D01*
X155588095Y-47047619D02*
X155635714Y-47000000D01*
X155730952Y-46952380D01*
X155969047Y-46952380D01*
X156064285Y-47000000D01*
X156111904Y-47047619D01*
X156159523Y-47142857D01*
X156159523Y-47238095D01*
X156111904Y-47380952D01*
X155540476Y-47952380D01*
X156159523Y-47952380D01*
X156635714Y-47952380D02*
X156826190Y-47952380D01*
X156921428Y-47904761D01*
X156969047Y-47857142D01*
X157064285Y-47714285D01*
X157111904Y-47523809D01*
X157111904Y-47142857D01*
X157064285Y-47047619D01*
X157016666Y-47000000D01*
X156921428Y-46952380D01*
X156730952Y-46952380D01*
X156635714Y-47000000D01*
X156588095Y-47047619D01*
X156540476Y-47142857D01*
X156540476Y-47380952D01*
X156588095Y-47476190D01*
X156635714Y-47523809D01*
X156730952Y-47571428D01*
X156921428Y-47571428D01*
X157016666Y-47523809D01*
X157064285Y-47476190D01*
X157111904Y-47380952D01*
G04 #@! TO.C,C2*
X150333333Y-74357142D02*
X150285714Y-74404761D01*
X150142857Y-74452380D01*
X150047619Y-74452380D01*
X149904761Y-74404761D01*
X149809523Y-74309523D01*
X149761904Y-74214285D01*
X149714285Y-74023809D01*
X149714285Y-73880952D01*
X149761904Y-73690476D01*
X149809523Y-73595238D01*
X149904761Y-73500000D01*
X150047619Y-73452380D01*
X150142857Y-73452380D01*
X150285714Y-73500000D01*
X150333333Y-73547619D01*
X150714285Y-73547619D02*
X150761904Y-73500000D01*
X150857142Y-73452380D01*
X151095238Y-73452380D01*
X151190476Y-73500000D01*
X151238095Y-73547619D01*
X151285714Y-73642857D01*
X151285714Y-73738095D01*
X151238095Y-73880952D01*
X150666666Y-74452380D01*
X151285714Y-74452380D01*
G04 #@! TO.C,C1*
X156983333Y-75857142D02*
X156935714Y-75904761D01*
X156792857Y-75952380D01*
X156697619Y-75952380D01*
X156554761Y-75904761D01*
X156459523Y-75809523D01*
X156411904Y-75714285D01*
X156364285Y-75523809D01*
X156364285Y-75380952D01*
X156411904Y-75190476D01*
X156459523Y-75095238D01*
X156554761Y-75000000D01*
X156697619Y-74952380D01*
X156792857Y-74952380D01*
X156935714Y-75000000D01*
X156983333Y-75047619D01*
X157935714Y-75952380D02*
X157364285Y-75952380D01*
X157650000Y-75952380D02*
X157650000Y-74952380D01*
X157554761Y-75095238D01*
X157459523Y-75190476D01*
X157364285Y-75238095D01*
G04 #@! TO.C,C3*
X160357142Y-66666666D02*
X160404761Y-66714285D01*
X160452380Y-66857142D01*
X160452380Y-66952380D01*
X160404761Y-67095238D01*
X160309523Y-67190476D01*
X160214285Y-67238095D01*
X160023809Y-67285714D01*
X159880952Y-67285714D01*
X159690476Y-67238095D01*
X159595238Y-67190476D01*
X159500000Y-67095238D01*
X159452380Y-66952380D01*
X159452380Y-66857142D01*
X159500000Y-66714285D01*
X159547619Y-66666666D01*
X159452380Y-66333333D02*
X159452380Y-65714285D01*
X159833333Y-66047619D01*
X159833333Y-65904761D01*
X159880952Y-65809523D01*
X159928571Y-65761904D01*
X160023809Y-65714285D01*
X160261904Y-65714285D01*
X160357142Y-65761904D01*
X160404761Y-65809523D01*
X160452380Y-65904761D01*
X160452380Y-66190476D01*
X160404761Y-66285714D01*
X160357142Y-66333333D01*
G04 #@! TO.C,C4*
X155333333Y-45357142D02*
X155285714Y-45404761D01*
X155142857Y-45452380D01*
X155047619Y-45452380D01*
X154904761Y-45404761D01*
X154809523Y-45309523D01*
X154761904Y-45214285D01*
X154714285Y-45023809D01*
X154714285Y-44880952D01*
X154761904Y-44690476D01*
X154809523Y-44595238D01*
X154904761Y-44500000D01*
X155047619Y-44452380D01*
X155142857Y-44452380D01*
X155285714Y-44500000D01*
X155333333Y-44547619D01*
X156190476Y-44785714D02*
X156190476Y-45452380D01*
X155952380Y-44404761D02*
X155714285Y-45119047D01*
X156333333Y-45119047D01*
G04 #@! TO.C,P1*
X126761904Y-48952380D02*
X126761904Y-47952380D01*
X127142857Y-47952380D01*
X127238095Y-48000000D01*
X127285714Y-48047619D01*
X127333333Y-48142857D01*
X127333333Y-48285714D01*
X127285714Y-48380952D01*
X127238095Y-48428571D01*
X127142857Y-48476190D01*
X126761904Y-48476190D01*
X128285714Y-48952380D02*
X127714285Y-48952380D01*
X128000000Y-48952380D02*
X128000000Y-47952380D01*
X127904761Y-48095238D01*
X127809523Y-48190476D01*
X127714285Y-48238095D01*
G04 #@! TO.C,J1*
X133802380Y-92348333D02*
X134516666Y-92348333D01*
X134659523Y-92395952D01*
X134754761Y-92491190D01*
X134802380Y-92634047D01*
X134802380Y-92729285D01*
X134802380Y-91348333D02*
X134802380Y-91919761D01*
X134802380Y-91634047D02*
X133802380Y-91634047D01*
X133945238Y-91729285D01*
X134040476Y-91824523D01*
X134088095Y-91919761D01*
G04 #@! TO.C,J2*
X156662380Y-92348333D02*
X157376666Y-92348333D01*
X157519523Y-92395952D01*
X157614761Y-92491190D01*
X157662380Y-92634047D01*
X157662380Y-92729285D01*
X156757619Y-91919761D02*
X156710000Y-91872142D01*
X156662380Y-91776904D01*
X156662380Y-91538809D01*
X156710000Y-91443571D01*
X156757619Y-91395952D01*
X156852857Y-91348333D01*
X156948095Y-91348333D01*
X157090952Y-91395952D01*
X157662380Y-91967380D01*
X157662380Y-91348333D01*
G04 #@! TO.C,U2*
X153952380Y-70761904D02*
X154761904Y-70761904D01*
X154857142Y-70714285D01*
X154904761Y-70666666D01*
X154952380Y-70571428D01*
X154952380Y-70380952D01*
X154904761Y-70285714D01*
X154857142Y-70238095D01*
X154761904Y-70190476D01*
X153952380Y-70190476D01*
X154047619Y-69761904D02*
X154000000Y-69714285D01*
X153952380Y-69619047D01*
X153952380Y-69380952D01*
X154000000Y-69285714D01*
X154047619Y-69238095D01*
X154142857Y-69190476D01*
X154238095Y-69190476D01*
X154380952Y-69238095D01*
X154952380Y-69809523D01*
X154952380Y-69190476D01*
G04 #@! TO.C,U1*
X159452380Y-70761904D02*
X160261904Y-70761904D01*
X160357142Y-70714285D01*
X160404761Y-70666666D01*
X160452380Y-70571428D01*
X160452380Y-70380952D01*
X160404761Y-70285714D01*
X160357142Y-70238095D01*
X160261904Y-70190476D01*
X159452380Y-70190476D01*
X160452380Y-69190476D02*
X160452380Y-69761904D01*
X160452380Y-69476190D02*
X159452380Y-69476190D01*
X159595238Y-69571428D01*
X159690476Y-69666666D01*
X159738095Y-69761904D01*
G04 #@! TO.C,R11*
X138452380Y-74642857D02*
X137976190Y-74976190D01*
X138452380Y-75214285D02*
X137452380Y-75214285D01*
X137452380Y-74833333D01*
X137500000Y-74738095D01*
X137547619Y-74690476D01*
X137642857Y-74642857D01*
X137785714Y-74642857D01*
X137880952Y-74690476D01*
X137928571Y-74738095D01*
X137976190Y-74833333D01*
X137976190Y-75214285D01*
X138452380Y-73690476D02*
X138452380Y-74261904D01*
X138452380Y-73976190D02*
X137452380Y-73976190D01*
X137595238Y-74071428D01*
X137690476Y-74166666D01*
X137738095Y-74261904D01*
X138452380Y-72738095D02*
X138452380Y-73309523D01*
X138452380Y-73023809D02*
X137452380Y-73023809D01*
X137595238Y-73119047D01*
X137690476Y-73214285D01*
X137738095Y-73309523D01*
G04 #@! TO.C,R13*
X141452380Y-74642857D02*
X140976190Y-74976190D01*
X141452380Y-75214285D02*
X140452380Y-75214285D01*
X140452380Y-74833333D01*
X140500000Y-74738095D01*
X140547619Y-74690476D01*
X140642857Y-74642857D01*
X140785714Y-74642857D01*
X140880952Y-74690476D01*
X140928571Y-74738095D01*
X140976190Y-74833333D01*
X140976190Y-75214285D01*
X141452380Y-73690476D02*
X141452380Y-74261904D01*
X141452380Y-73976190D02*
X140452380Y-73976190D01*
X140595238Y-74071428D01*
X140690476Y-74166666D01*
X140738095Y-74261904D01*
X140452380Y-73357142D02*
X140452380Y-72738095D01*
X140833333Y-73071428D01*
X140833333Y-72928571D01*
X140880952Y-72833333D01*
X140928571Y-72785714D01*
X141023809Y-72738095D01*
X141261904Y-72738095D01*
X141357142Y-72785714D01*
X141404761Y-72833333D01*
X141452380Y-72928571D01*
X141452380Y-73214285D01*
X141404761Y-73309523D01*
X141357142Y-73357142D01*
G04 #@! TO.C,R14*
X142952380Y-69642857D02*
X142476190Y-69976190D01*
X142952380Y-70214285D02*
X141952380Y-70214285D01*
X141952380Y-69833333D01*
X142000000Y-69738095D01*
X142047619Y-69690476D01*
X142142857Y-69642857D01*
X142285714Y-69642857D01*
X142380952Y-69690476D01*
X142428571Y-69738095D01*
X142476190Y-69833333D01*
X142476190Y-70214285D01*
X142952380Y-68690476D02*
X142952380Y-69261904D01*
X142952380Y-68976190D02*
X141952380Y-68976190D01*
X142095238Y-69071428D01*
X142190476Y-69166666D01*
X142238095Y-69261904D01*
X142285714Y-67833333D02*
X142952380Y-67833333D01*
X141904761Y-68071428D02*
X142619047Y-68309523D01*
X142619047Y-67690476D01*
G04 #@! TO.C,R15*
X144452380Y-74642857D02*
X143976190Y-74976190D01*
X144452380Y-75214285D02*
X143452380Y-75214285D01*
X143452380Y-74833333D01*
X143500000Y-74738095D01*
X143547619Y-74690476D01*
X143642857Y-74642857D01*
X143785714Y-74642857D01*
X143880952Y-74690476D01*
X143928571Y-74738095D01*
X143976190Y-74833333D01*
X143976190Y-75214285D01*
X144452380Y-73690476D02*
X144452380Y-74261904D01*
X144452380Y-73976190D02*
X143452380Y-73976190D01*
X143595238Y-74071428D01*
X143690476Y-74166666D01*
X143738095Y-74261904D01*
X143452380Y-72785714D02*
X143452380Y-73261904D01*
X143928571Y-73309523D01*
X143880952Y-73261904D01*
X143833333Y-73166666D01*
X143833333Y-72928571D01*
X143880952Y-72833333D01*
X143928571Y-72785714D01*
X144023809Y-72738095D01*
X144261904Y-72738095D01*
X144357142Y-72785714D01*
X144404761Y-72833333D01*
X144452380Y-72928571D01*
X144452380Y-73166666D01*
X144404761Y-73261904D01*
X144357142Y-73309523D01*
G04 #@! TO.C,R16*
X145952380Y-74642857D02*
X145476190Y-74976190D01*
X145952380Y-75214285D02*
X144952380Y-75214285D01*
X144952380Y-74833333D01*
X145000000Y-74738095D01*
X145047619Y-74690476D01*
X145142857Y-74642857D01*
X145285714Y-74642857D01*
X145380952Y-74690476D01*
X145428571Y-74738095D01*
X145476190Y-74833333D01*
X145476190Y-75214285D01*
X145952380Y-73690476D02*
X145952380Y-74261904D01*
X145952380Y-73976190D02*
X144952380Y-73976190D01*
X145095238Y-74071428D01*
X145190476Y-74166666D01*
X145238095Y-74261904D01*
X144952380Y-72833333D02*
X144952380Y-73023809D01*
X145000000Y-73119047D01*
X145047619Y-73166666D01*
X145190476Y-73261904D01*
X145380952Y-73309523D01*
X145761904Y-73309523D01*
X145857142Y-73261904D01*
X145904761Y-73214285D01*
X145952380Y-73119047D01*
X145952380Y-72928571D01*
X145904761Y-72833333D01*
X145857142Y-72785714D01*
X145761904Y-72738095D01*
X145523809Y-72738095D01*
X145428571Y-72785714D01*
X145380952Y-72833333D01*
X145333333Y-72928571D01*
X145333333Y-73119047D01*
X145380952Y-73214285D01*
X145428571Y-73261904D01*
X145523809Y-73309523D01*
G04 #@! TO.C,R17*
X147452380Y-74642857D02*
X146976190Y-74976190D01*
X147452380Y-75214285D02*
X146452380Y-75214285D01*
X146452380Y-74833333D01*
X146500000Y-74738095D01*
X146547619Y-74690476D01*
X146642857Y-74642857D01*
X146785714Y-74642857D01*
X146880952Y-74690476D01*
X146928571Y-74738095D01*
X146976190Y-74833333D01*
X146976190Y-75214285D01*
X147452380Y-73690476D02*
X147452380Y-74261904D01*
X147452380Y-73976190D02*
X146452380Y-73976190D01*
X146595238Y-74071428D01*
X146690476Y-74166666D01*
X146738095Y-74261904D01*
X146452380Y-73357142D02*
X146452380Y-72690476D01*
X147452380Y-73119047D01*
G04 #@! TO.C,R18*
X131952380Y-68142857D02*
X131476190Y-68476190D01*
X131952380Y-68714285D02*
X130952380Y-68714285D01*
X130952380Y-68333333D01*
X131000000Y-68238095D01*
X131047619Y-68190476D01*
X131142857Y-68142857D01*
X131285714Y-68142857D01*
X131380952Y-68190476D01*
X131428571Y-68238095D01*
X131476190Y-68333333D01*
X131476190Y-68714285D01*
X131952380Y-67190476D02*
X131952380Y-67761904D01*
X131952380Y-67476190D02*
X130952380Y-67476190D01*
X131095238Y-67571428D01*
X131190476Y-67666666D01*
X131238095Y-67761904D01*
X131380952Y-66619047D02*
X131333333Y-66714285D01*
X131285714Y-66761904D01*
X131190476Y-66809523D01*
X131142857Y-66809523D01*
X131047619Y-66761904D01*
X131000000Y-66714285D01*
X130952380Y-66619047D01*
X130952380Y-66428571D01*
X131000000Y-66333333D01*
X131047619Y-66285714D01*
X131142857Y-66238095D01*
X131190476Y-66238095D01*
X131285714Y-66285714D01*
X131333333Y-66333333D01*
X131380952Y-66428571D01*
X131380952Y-66619047D01*
X131428571Y-66714285D01*
X131476190Y-66761904D01*
X131571428Y-66809523D01*
X131761904Y-66809523D01*
X131857142Y-66761904D01*
X131904761Y-66714285D01*
X131952380Y-66619047D01*
X131952380Y-66428571D01*
X131904761Y-66333333D01*
X131857142Y-66285714D01*
X131761904Y-66238095D01*
X131571428Y-66238095D01*
X131476190Y-66285714D01*
X131428571Y-66333333D01*
X131380952Y-66428571D01*
G04 #@! TO.C,R19*
X134452380Y-68142857D02*
X133976190Y-68476190D01*
X134452380Y-68714285D02*
X133452380Y-68714285D01*
X133452380Y-68333333D01*
X133500000Y-68238095D01*
X133547619Y-68190476D01*
X133642857Y-68142857D01*
X133785714Y-68142857D01*
X133880952Y-68190476D01*
X133928571Y-68238095D01*
X133976190Y-68333333D01*
X133976190Y-68714285D01*
X134452380Y-67190476D02*
X134452380Y-67761904D01*
X134452380Y-67476190D02*
X133452380Y-67476190D01*
X133595238Y-67571428D01*
X133690476Y-67666666D01*
X133738095Y-67761904D01*
X134452380Y-66714285D02*
X134452380Y-66523809D01*
X134404761Y-66428571D01*
X134357142Y-66380952D01*
X134214285Y-66285714D01*
X134023809Y-66238095D01*
X133642857Y-66238095D01*
X133547619Y-66285714D01*
X133500000Y-66333333D01*
X133452380Y-66428571D01*
X133452380Y-66619047D01*
X133500000Y-66714285D01*
X133547619Y-66761904D01*
X133642857Y-66809523D01*
X133880952Y-66809523D01*
X133976190Y-66761904D01*
X134023809Y-66714285D01*
X134071428Y-66619047D01*
X134071428Y-66428571D01*
X134023809Y-66333333D01*
X133976190Y-66285714D01*
X133880952Y-66238095D01*
G04 #@! TO.C,R20*
X137952380Y-68142857D02*
X137476190Y-68476190D01*
X137952380Y-68714285D02*
X136952380Y-68714285D01*
X136952380Y-68333333D01*
X137000000Y-68238095D01*
X137047619Y-68190476D01*
X137142857Y-68142857D01*
X137285714Y-68142857D01*
X137380952Y-68190476D01*
X137428571Y-68238095D01*
X137476190Y-68333333D01*
X137476190Y-68714285D01*
X137047619Y-67761904D02*
X137000000Y-67714285D01*
X136952380Y-67619047D01*
X136952380Y-67380952D01*
X137000000Y-67285714D01*
X137047619Y-67238095D01*
X137142857Y-67190476D01*
X137238095Y-67190476D01*
X137380952Y-67238095D01*
X137952380Y-67809523D01*
X137952380Y-67190476D01*
X136952380Y-66571428D02*
X136952380Y-66476190D01*
X137000000Y-66380952D01*
X137047619Y-66333333D01*
X137142857Y-66285714D01*
X137333333Y-66238095D01*
X137571428Y-66238095D01*
X137761904Y-66285714D01*
X137857142Y-66333333D01*
X137904761Y-66380952D01*
X137952380Y-66476190D01*
X137952380Y-66571428D01*
X137904761Y-66666666D01*
X137857142Y-66714285D01*
X137761904Y-66761904D01*
X137571428Y-66809523D01*
X137333333Y-66809523D01*
X137142857Y-66761904D01*
X137047619Y-66714285D01*
X137000000Y-66666666D01*
X136952380Y-66571428D01*
G04 #@! TO.C,R21*
X140452380Y-68142857D02*
X139976190Y-68476190D01*
X140452380Y-68714285D02*
X139452380Y-68714285D01*
X139452380Y-68333333D01*
X139500000Y-68238095D01*
X139547619Y-68190476D01*
X139642857Y-68142857D01*
X139785714Y-68142857D01*
X139880952Y-68190476D01*
X139928571Y-68238095D01*
X139976190Y-68333333D01*
X139976190Y-68714285D01*
X139547619Y-67761904D02*
X139500000Y-67714285D01*
X139452380Y-67619047D01*
X139452380Y-67380952D01*
X139500000Y-67285714D01*
X139547619Y-67238095D01*
X139642857Y-67190476D01*
X139738095Y-67190476D01*
X139880952Y-67238095D01*
X140452380Y-67809523D01*
X140452380Y-67190476D01*
X140452380Y-66238095D02*
X140452380Y-66809523D01*
X140452380Y-66523809D02*
X139452380Y-66523809D01*
X139595238Y-66619047D01*
X139690476Y-66714285D01*
X139738095Y-66809523D01*
G04 #@! TO.C,R22*
X143952380Y-68142857D02*
X143476190Y-68476190D01*
X143952380Y-68714285D02*
X142952380Y-68714285D01*
X142952380Y-68333333D01*
X143000000Y-68238095D01*
X143047619Y-68190476D01*
X143142857Y-68142857D01*
X143285714Y-68142857D01*
X143380952Y-68190476D01*
X143428571Y-68238095D01*
X143476190Y-68333333D01*
X143476190Y-68714285D01*
X143047619Y-67761904D02*
X143000000Y-67714285D01*
X142952380Y-67619047D01*
X142952380Y-67380952D01*
X143000000Y-67285714D01*
X143047619Y-67238095D01*
X143142857Y-67190476D01*
X143238095Y-67190476D01*
X143380952Y-67238095D01*
X143952380Y-67809523D01*
X143952380Y-67190476D01*
X143047619Y-66809523D02*
X143000000Y-66761904D01*
X142952380Y-66666666D01*
X142952380Y-66428571D01*
X143000000Y-66333333D01*
X143047619Y-66285714D01*
X143142857Y-66238095D01*
X143238095Y-66238095D01*
X143380952Y-66285714D01*
X143952380Y-66857142D01*
X143952380Y-66238095D01*
G04 #@! TO.C,R23*
X146452380Y-68142857D02*
X145976190Y-68476190D01*
X146452380Y-68714285D02*
X145452380Y-68714285D01*
X145452380Y-68333333D01*
X145500000Y-68238095D01*
X145547619Y-68190476D01*
X145642857Y-68142857D01*
X145785714Y-68142857D01*
X145880952Y-68190476D01*
X145928571Y-68238095D01*
X145976190Y-68333333D01*
X145976190Y-68714285D01*
X145547619Y-67761904D02*
X145500000Y-67714285D01*
X145452380Y-67619047D01*
X145452380Y-67380952D01*
X145500000Y-67285714D01*
X145547619Y-67238095D01*
X145642857Y-67190476D01*
X145738095Y-67190476D01*
X145880952Y-67238095D01*
X146452380Y-67809523D01*
X146452380Y-67190476D01*
X145452380Y-66857142D02*
X145452380Y-66238095D01*
X145833333Y-66571428D01*
X145833333Y-66428571D01*
X145880952Y-66333333D01*
X145928571Y-66285714D01*
X146023809Y-66238095D01*
X146261904Y-66238095D01*
X146357142Y-66285714D01*
X146404761Y-66333333D01*
X146452380Y-66428571D01*
X146452380Y-66714285D01*
X146404761Y-66809523D01*
X146357142Y-66857142D01*
G04 #@! TO.C,R9*
X135452380Y-74666666D02*
X134976190Y-75000000D01*
X135452380Y-75238095D02*
X134452380Y-75238095D01*
X134452380Y-74857142D01*
X134500000Y-74761904D01*
X134547619Y-74714285D01*
X134642857Y-74666666D01*
X134785714Y-74666666D01*
X134880952Y-74714285D01*
X134928571Y-74761904D01*
X134976190Y-74857142D01*
X134976190Y-75238095D01*
X135452380Y-74190476D02*
X135452380Y-74000000D01*
X135404761Y-73904761D01*
X135357142Y-73857142D01*
X135214285Y-73761904D01*
X135023809Y-73714285D01*
X134642857Y-73714285D01*
X134547619Y-73761904D01*
X134500000Y-73809523D01*
X134452380Y-73904761D01*
X134452380Y-74095238D01*
X134500000Y-74190476D01*
X134547619Y-74238095D01*
X134642857Y-74285714D01*
X134880952Y-74285714D01*
X134976190Y-74238095D01*
X135023809Y-74190476D01*
X135071428Y-74095238D01*
X135071428Y-73904761D01*
X135023809Y-73809523D01*
X134976190Y-73761904D01*
X134880952Y-73714285D01*
G04 #@! TO.C,R12*
X139952380Y-74642857D02*
X139476190Y-74976190D01*
X139952380Y-75214285D02*
X138952380Y-75214285D01*
X138952380Y-74833333D01*
X139000000Y-74738095D01*
X139047619Y-74690476D01*
X139142857Y-74642857D01*
X139285714Y-74642857D01*
X139380952Y-74690476D01*
X139428571Y-74738095D01*
X139476190Y-74833333D01*
X139476190Y-75214285D01*
X139952380Y-73690476D02*
X139952380Y-74261904D01*
X139952380Y-73976190D02*
X138952380Y-73976190D01*
X139095238Y-74071428D01*
X139190476Y-74166666D01*
X139238095Y-74261904D01*
X139047619Y-73309523D02*
X139000000Y-73261904D01*
X138952380Y-73166666D01*
X138952380Y-72928571D01*
X139000000Y-72833333D01*
X139047619Y-72785714D01*
X139142857Y-72738095D01*
X139238095Y-72738095D01*
X139380952Y-72785714D01*
X139952380Y-73357142D01*
X139952380Y-72738095D01*
G04 #@! TO.C,R10*
X136952380Y-74642857D02*
X136476190Y-74976190D01*
X136952380Y-75214285D02*
X135952380Y-75214285D01*
X135952380Y-74833333D01*
X136000000Y-74738095D01*
X136047619Y-74690476D01*
X136142857Y-74642857D01*
X136285714Y-74642857D01*
X136380952Y-74690476D01*
X136428571Y-74738095D01*
X136476190Y-74833333D01*
X136476190Y-75214285D01*
X136952380Y-73690476D02*
X136952380Y-74261904D01*
X136952380Y-73976190D02*
X135952380Y-73976190D01*
X136095238Y-74071428D01*
X136190476Y-74166666D01*
X136238095Y-74261904D01*
X135952380Y-73071428D02*
X135952380Y-72976190D01*
X136000000Y-72880952D01*
X136047619Y-72833333D01*
X136142857Y-72785714D01*
X136333333Y-72738095D01*
X136571428Y-72738095D01*
X136761904Y-72785714D01*
X136857142Y-72833333D01*
X136904761Y-72880952D01*
X136952380Y-72976190D01*
X136952380Y-73071428D01*
X136904761Y-73166666D01*
X136857142Y-73214285D01*
X136761904Y-73261904D01*
X136571428Y-73309523D01*
X136333333Y-73309523D01*
X136142857Y-73261904D01*
X136047619Y-73214285D01*
X136000000Y-73166666D01*
X135952380Y-73071428D01*
G04 #@! TO.C,R8*
X133952380Y-74666666D02*
X133476190Y-75000000D01*
X133952380Y-75238095D02*
X132952380Y-75238095D01*
X132952380Y-74857142D01*
X133000000Y-74761904D01*
X133047619Y-74714285D01*
X133142857Y-74666666D01*
X133285714Y-74666666D01*
X133380952Y-74714285D01*
X133428571Y-74761904D01*
X133476190Y-74857142D01*
X133476190Y-75238095D01*
X133380952Y-74095238D02*
X133333333Y-74190476D01*
X133285714Y-74238095D01*
X133190476Y-74285714D01*
X133142857Y-74285714D01*
X133047619Y-74238095D01*
X133000000Y-74190476D01*
X132952380Y-74095238D01*
X132952380Y-73904761D01*
X133000000Y-73809523D01*
X133047619Y-73761904D01*
X133142857Y-73714285D01*
X133190476Y-73714285D01*
X133285714Y-73761904D01*
X133333333Y-73809523D01*
X133380952Y-73904761D01*
X133380952Y-74095238D01*
X133428571Y-74190476D01*
X133476190Y-74238095D01*
X133571428Y-74285714D01*
X133761904Y-74285714D01*
X133857142Y-74238095D01*
X133904761Y-74190476D01*
X133952380Y-74095238D01*
X133952380Y-73904761D01*
X133904761Y-73809523D01*
X133857142Y-73761904D01*
X133761904Y-73714285D01*
X133571428Y-73714285D01*
X133476190Y-73761904D01*
X133428571Y-73809523D01*
X133380952Y-73904761D01*
G04 #@! TO.C,R7*
X132452380Y-74666666D02*
X131976190Y-75000000D01*
X132452380Y-75238095D02*
X131452380Y-75238095D01*
X131452380Y-74857142D01*
X131500000Y-74761904D01*
X131547619Y-74714285D01*
X131642857Y-74666666D01*
X131785714Y-74666666D01*
X131880952Y-74714285D01*
X131928571Y-74761904D01*
X131976190Y-74857142D01*
X131976190Y-75238095D01*
X131452380Y-74333333D02*
X131452380Y-73666666D01*
X132452380Y-74095238D01*
G04 #@! TO.C,R6*
X130952380Y-74666666D02*
X130476190Y-75000000D01*
X130952380Y-75238095D02*
X129952380Y-75238095D01*
X129952380Y-74857142D01*
X130000000Y-74761904D01*
X130047619Y-74714285D01*
X130142857Y-74666666D01*
X130285714Y-74666666D01*
X130380952Y-74714285D01*
X130428571Y-74761904D01*
X130476190Y-74857142D01*
X130476190Y-75238095D01*
X129952380Y-73809523D02*
X129952380Y-74000000D01*
X130000000Y-74095238D01*
X130047619Y-74142857D01*
X130190476Y-74238095D01*
X130380952Y-74285714D01*
X130761904Y-74285714D01*
X130857142Y-74238095D01*
X130904761Y-74190476D01*
X130952380Y-74095238D01*
X130952380Y-73904761D01*
X130904761Y-73809523D01*
X130857142Y-73761904D01*
X130761904Y-73714285D01*
X130523809Y-73714285D01*
X130428571Y-73761904D01*
X130380952Y-73809523D01*
X130333333Y-73904761D01*
X130333333Y-74095238D01*
X130380952Y-74190476D01*
X130428571Y-74238095D01*
X130523809Y-74285714D01*
G04 #@! TO.C,R5*
X150333333Y-78452380D02*
X150000000Y-77976190D01*
X149761904Y-78452380D02*
X149761904Y-77452380D01*
X150142857Y-77452380D01*
X150238095Y-77500000D01*
X150285714Y-77547619D01*
X150333333Y-77642857D01*
X150333333Y-77785714D01*
X150285714Y-77880952D01*
X150238095Y-77928571D01*
X150142857Y-77976190D01*
X149761904Y-77976190D01*
X151238095Y-77452380D02*
X150761904Y-77452380D01*
X150714285Y-77928571D01*
X150761904Y-77880952D01*
X150857142Y-77833333D01*
X151095238Y-77833333D01*
X151190476Y-77880952D01*
X151238095Y-77928571D01*
X151285714Y-78023809D01*
X151285714Y-78261904D01*
X151238095Y-78357142D01*
X151190476Y-78404761D01*
X151095238Y-78452380D01*
X150857142Y-78452380D01*
X150761904Y-78404761D01*
X150714285Y-78357142D01*
G04 #@! TO.C,R4*
X150333333Y-79952380D02*
X150000000Y-79476190D01*
X149761904Y-79952380D02*
X149761904Y-78952380D01*
X150142857Y-78952380D01*
X150238095Y-79000000D01*
X150285714Y-79047619D01*
X150333333Y-79142857D01*
X150333333Y-79285714D01*
X150285714Y-79380952D01*
X150238095Y-79428571D01*
X150142857Y-79476190D01*
X149761904Y-79476190D01*
X151190476Y-79285714D02*
X151190476Y-79952380D01*
X150952380Y-78904761D02*
X150714285Y-79619047D01*
X151333333Y-79619047D01*
G04 #@! TO.C,R3*
X150333333Y-75952380D02*
X150000000Y-75476190D01*
X149761904Y-75952380D02*
X149761904Y-74952380D01*
X150142857Y-74952380D01*
X150238095Y-75000000D01*
X150285714Y-75047619D01*
X150333333Y-75142857D01*
X150333333Y-75285714D01*
X150285714Y-75380952D01*
X150238095Y-75428571D01*
X150142857Y-75476190D01*
X149761904Y-75476190D01*
X150666666Y-74952380D02*
X151285714Y-74952380D01*
X150952380Y-75333333D01*
X151095238Y-75333333D01*
X151190476Y-75380952D01*
X151238095Y-75428571D01*
X151285714Y-75523809D01*
X151285714Y-75761904D01*
X151238095Y-75857142D01*
X151190476Y-75904761D01*
X151095238Y-75952380D01*
X150809523Y-75952380D01*
X150714285Y-75904761D01*
X150666666Y-75857142D01*
G04 #@! TO.C,R2*
X154333333Y-61202380D02*
X154000000Y-60726190D01*
X153761904Y-61202380D02*
X153761904Y-60202380D01*
X154142857Y-60202380D01*
X154238095Y-60250000D01*
X154285714Y-60297619D01*
X154333333Y-60392857D01*
X154333333Y-60535714D01*
X154285714Y-60630952D01*
X154238095Y-60678571D01*
X154142857Y-60726190D01*
X153761904Y-60726190D01*
X154714285Y-60297619D02*
X154761904Y-60250000D01*
X154857142Y-60202380D01*
X155095238Y-60202380D01*
X155190476Y-60250000D01*
X155238095Y-60297619D01*
X155285714Y-60392857D01*
X155285714Y-60488095D01*
X155238095Y-60630952D01*
X154666666Y-61202380D01*
X155285714Y-61202380D01*
G04 #@! TO.C,R1*
X154373333Y-62952380D02*
X154040000Y-62476190D01*
X153801904Y-62952380D02*
X153801904Y-61952380D01*
X154182857Y-61952380D01*
X154278095Y-62000000D01*
X154325714Y-62047619D01*
X154373333Y-62142857D01*
X154373333Y-62285714D01*
X154325714Y-62380952D01*
X154278095Y-62428571D01*
X154182857Y-62476190D01*
X153801904Y-62476190D01*
X155325714Y-62952380D02*
X154754285Y-62952380D01*
X155040000Y-62952380D02*
X155040000Y-61952380D01*
X154944761Y-62095238D01*
X154849523Y-62190476D01*
X154754285Y-62238095D01*
G04 #@! TO.C,R25*
X117857142Y-77702380D02*
X117523809Y-77226190D01*
X117285714Y-77702380D02*
X117285714Y-76702380D01*
X117666666Y-76702380D01*
X117761904Y-76750000D01*
X117809523Y-76797619D01*
X117857142Y-76892857D01*
X117857142Y-77035714D01*
X117809523Y-77130952D01*
X117761904Y-77178571D01*
X117666666Y-77226190D01*
X117285714Y-77226190D01*
X118238095Y-76797619D02*
X118285714Y-76750000D01*
X118380952Y-76702380D01*
X118619047Y-76702380D01*
X118714285Y-76750000D01*
X118761904Y-76797619D01*
X118809523Y-76892857D01*
X118809523Y-76988095D01*
X118761904Y-77130952D01*
X118190476Y-77702380D01*
X118809523Y-77702380D01*
X119714285Y-76702380D02*
X119238095Y-76702380D01*
X119190476Y-77178571D01*
X119238095Y-77130952D01*
X119333333Y-77083333D01*
X119571428Y-77083333D01*
X119666666Y-77130952D01*
X119714285Y-77178571D01*
X119761904Y-77273809D01*
X119761904Y-77511904D01*
X119714285Y-77607142D01*
X119666666Y-77654761D01*
X119571428Y-77702380D01*
X119333333Y-77702380D01*
X119238095Y-77654761D01*
X119190476Y-77607142D01*
G04 #@! TO.C,R26*
X132087142Y-64702380D02*
X131753809Y-64226190D01*
X131515714Y-64702380D02*
X131515714Y-63702380D01*
X131896666Y-63702380D01*
X131991904Y-63750000D01*
X132039523Y-63797619D01*
X132087142Y-63892857D01*
X132087142Y-64035714D01*
X132039523Y-64130952D01*
X131991904Y-64178571D01*
X131896666Y-64226190D01*
X131515714Y-64226190D01*
X132468095Y-63797619D02*
X132515714Y-63750000D01*
X132610952Y-63702380D01*
X132849047Y-63702380D01*
X132944285Y-63750000D01*
X132991904Y-63797619D01*
X133039523Y-63892857D01*
X133039523Y-63988095D01*
X132991904Y-64130952D01*
X132420476Y-64702380D01*
X133039523Y-64702380D01*
X133896666Y-63702380D02*
X133706190Y-63702380D01*
X133610952Y-63750000D01*
X133563333Y-63797619D01*
X133468095Y-63940476D01*
X133420476Y-64130952D01*
X133420476Y-64511904D01*
X133468095Y-64607142D01*
X133515714Y-64654761D01*
X133610952Y-64702380D01*
X133801428Y-64702380D01*
X133896666Y-64654761D01*
X133944285Y-64607142D01*
X133991904Y-64511904D01*
X133991904Y-64273809D01*
X133944285Y-64178571D01*
X133896666Y-64130952D01*
X133801428Y-64083333D01*
X133610952Y-64083333D01*
X133515714Y-64130952D01*
X133468095Y-64178571D01*
X133420476Y-64273809D01*
G04 #@! TO.C,R27*
X138107142Y-64782380D02*
X137773809Y-64306190D01*
X137535714Y-64782380D02*
X137535714Y-63782380D01*
X137916666Y-63782380D01*
X138011904Y-63830000D01*
X138059523Y-63877619D01*
X138107142Y-63972857D01*
X138107142Y-64115714D01*
X138059523Y-64210952D01*
X138011904Y-64258571D01*
X137916666Y-64306190D01*
X137535714Y-64306190D01*
X138488095Y-63877619D02*
X138535714Y-63830000D01*
X138630952Y-63782380D01*
X138869047Y-63782380D01*
X138964285Y-63830000D01*
X139011904Y-63877619D01*
X139059523Y-63972857D01*
X139059523Y-64068095D01*
X139011904Y-64210952D01*
X138440476Y-64782380D01*
X139059523Y-64782380D01*
X139392857Y-63782380D02*
X140059523Y-63782380D01*
X139630952Y-64782380D01*
G04 #@! TO.C,R28*
X144107142Y-64782380D02*
X143773809Y-64306190D01*
X143535714Y-64782380D02*
X143535714Y-63782380D01*
X143916666Y-63782380D01*
X144011904Y-63830000D01*
X144059523Y-63877619D01*
X144107142Y-63972857D01*
X144107142Y-64115714D01*
X144059523Y-64210952D01*
X144011904Y-64258571D01*
X143916666Y-64306190D01*
X143535714Y-64306190D01*
X144488095Y-63877619D02*
X144535714Y-63830000D01*
X144630952Y-63782380D01*
X144869047Y-63782380D01*
X144964285Y-63830000D01*
X145011904Y-63877619D01*
X145059523Y-63972857D01*
X145059523Y-64068095D01*
X145011904Y-64210952D01*
X144440476Y-64782380D01*
X145059523Y-64782380D01*
X145630952Y-64210952D02*
X145535714Y-64163333D01*
X145488095Y-64115714D01*
X145440476Y-64020476D01*
X145440476Y-63972857D01*
X145488095Y-63877619D01*
X145535714Y-63830000D01*
X145630952Y-63782380D01*
X145821428Y-63782380D01*
X145916666Y-63830000D01*
X145964285Y-63877619D01*
X146011904Y-63972857D01*
X146011904Y-64020476D01*
X145964285Y-64115714D01*
X145916666Y-64163333D01*
X145821428Y-64210952D01*
X145630952Y-64210952D01*
X145535714Y-64258571D01*
X145488095Y-64306190D01*
X145440476Y-64401428D01*
X145440476Y-64591904D01*
X145488095Y-64687142D01*
X145535714Y-64734761D01*
X145630952Y-64782380D01*
X145821428Y-64782380D01*
X145916666Y-64734761D01*
X145964285Y-64687142D01*
X146011904Y-64591904D01*
X146011904Y-64401428D01*
X145964285Y-64306190D01*
X145916666Y-64258571D01*
X145821428Y-64210952D01*
G04 #@! TO.C,R24*
X117857142Y-80122380D02*
X117523809Y-79646190D01*
X117285714Y-80122380D02*
X117285714Y-79122380D01*
X117666666Y-79122380D01*
X117761904Y-79170000D01*
X117809523Y-79217619D01*
X117857142Y-79312857D01*
X117857142Y-79455714D01*
X117809523Y-79550952D01*
X117761904Y-79598571D01*
X117666666Y-79646190D01*
X117285714Y-79646190D01*
X118238095Y-79217619D02*
X118285714Y-79170000D01*
X118380952Y-79122380D01*
X118619047Y-79122380D01*
X118714285Y-79170000D01*
X118761904Y-79217619D01*
X118809523Y-79312857D01*
X118809523Y-79408095D01*
X118761904Y-79550952D01*
X118190476Y-80122380D01*
X118809523Y-80122380D01*
X119666666Y-79455714D02*
X119666666Y-80122380D01*
X119428571Y-79074761D02*
X119190476Y-79789047D01*
X119809523Y-79789047D01*
G04 #@! TD*
M02*
